<?xml version="1.0" encoding="utf-8"?>
<!-- Generator: Adobe Illustrator 16.0.0, SVG Export Plug-In . SVG Version: 6.00 Build 0)  -->
<!DOCTYPE svg PUBLIC "-//W3C//DTD SVG 1.1//EN" "http://www.w3.org/Graphics/SVG/1.1/DTD/svg11.dtd">
<svg version="1.1"
	 id="svg2" xmlns:dc="http://purl.org/dc/elements/1.1/" xmlns:cc="http://creativecommons.org/ns#" xmlns:rdf="http://www.w3.org/1999/02/22-rdf-syntax-ns#" xmlns:svg="http://www.w3.org/2000/svg" xmlns:sodipodi="http://sodipodi.sourceforge.net/DTD/sodipodi-0.dtd" xmlns:inkscape="http://www.inkscape.org/namespaces/inkscape" inkscape:version="0.91 r13725" sodipodi:docname="LogoIKMZ.svg"
	 xmlns="http://www.w3.org/2000/svg" xmlns:xlink="http://www.w3.org/1999/xlink" x="0px" y="0px" width="352px" height="35.152px"
	 viewBox="0 0 352 35.152" enable-background="new 0 0 352 35.152" xml:space="preserve">
<sodipodi:namedview  id="base" pagecolor="#ffffff" bordercolor="#666666" borderopacity="1.0" inkscape:zoom="2.8" inkscape:cx="504.69877" inkscape:cy="620.00031" showgrid="false" inkscape:pageshadow="2" inkscape:document-units="px" inkscape:current-layer="g4210" inkscape:window-width="2560" inkscape:window-height="1346" inkscape:window-y="-11" inkscape:window-maximized="1" inkscape:window-x="-11" inkscape:pageopacity="0.0">
	</sodipodi:namedview>
<g id="layer1" inkscape:label="Ebene 1" inkscape:groupmode="layer">
	<g id="g4210">
		<g id="g4218">
			<g enable-background="new    ">
				<path d="M7.068,3.612L9.51,3.69c1.602,0.052,2.649,0.078,3.145,0.078c0.442,0,2.311-0.052,5.605-0.156l0.156,0.137v0.977
					L18.26,4.862c-0.898,0.026-1.592,0.065-2.08,0.117s-0.843,0.149-1.064,0.293c-0.222,0.144-0.368,0.479-0.439,1.006
					c-0.072,0.527-0.107,1.26-0.107,2.197l-0.039,4.492v9.043l0.02,3.809c0.013,1.472,0.052,2.422,0.117,2.852
					c0.065,0.43,0.159,0.716,0.283,0.859c0.124,0.144,0.361,0.264,0.713,0.361s1.217,0.173,2.598,0.225l0.156,0.117v0.977
					l-0.156,0.156c-0.065,0-1.211-0.039-3.438-0.117c-0.925-0.026-1.647-0.039-2.168-0.039c-0.404,0-2.266,0.052-5.586,0.156
					l-0.156-0.156v-0.977l0.156-0.117c1.211-0.052,2.018-0.117,2.422-0.195c0.403-0.078,0.674-0.179,0.811-0.303
					s0.247-0.388,0.332-0.791c0.084-0.403,0.133-1.302,0.146-2.695l0.02-4.121v-9.043L10.76,9.158
					c-0.013-1.484-0.049-2.441-0.107-2.871s-0.15-0.716-0.273-0.859c-0.124-0.144-0.361-0.261-0.713-0.352S8.448,4.913,7.068,4.862
					L6.912,4.725V3.748L7.068,3.612z"/>
				<path d="M28.006,17.069c3.268-2.956,5.628-5.159,7.08-6.611c1.452-1.452,2.649-2.649,3.594-3.594
					c0.944-0.944,1.507-1.553,1.689-1.826v-1.27l0.195-0.156c0.989,0.052,2.07,0.078,3.242,0.078c0.26,0,1.289-0.02,3.086-0.059
					l0.195,0.176v0.918l-0.156,0.156c-1.211,0-2.038,0.068-2.48,0.205c-0.443,0.137-1.091,0.554-1.943,1.25
					c-0.853,0.696-1.833,1.553-2.939,2.568l-7.91,7.227L43.416,27.01c1.888,1.758,2.946,2.715,3.174,2.871
					c0.228,0.156,0.7,0.247,1.416,0.273l0.137,0.156v0.82l-0.137,0.156c-0.755-0.052-1.537-0.078-2.344-0.078
					c-0.482,0-1.537,0.026-3.164,0.078c-1.185-1.12-2.224-2.109-3.115-2.969c-0.892-0.859-4.685-4.349-11.377-10.469v4.16
					l0.02,3.809c0.013,1.472,0.052,2.422,0.117,2.852c0.065,0.43,0.159,0.716,0.283,0.859c0.124,0.144,0.361,0.264,0.713,0.361
					s1.217,0.173,2.598,0.225l0.156,0.117v0.977l-0.156,0.156c-0.065,0-1.211-0.039-3.438-0.117
					c-0.925-0.026-1.647-0.039-2.168-0.039c-0.404,0-2.266,0.052-5.586,0.156l-0.156-0.156v-0.977l0.156-0.117
					c1.211-0.052,2.018-0.117,2.422-0.195c0.403-0.078,0.674-0.179,0.811-0.303s0.247-0.388,0.332-0.791
					c0.084-0.403,0.133-1.302,0.146-2.695l0.02-4.121v-9.043l-0.039-3.809c-0.013-1.484-0.049-2.441-0.107-2.871
					s-0.15-0.716-0.273-0.859c-0.124-0.144-0.361-0.261-0.713-0.352s-1.218-0.163-2.598-0.215l-0.156-0.137V3.748l0.156-0.137
					l2.441,0.078c1.602,0.052,2.649,0.078,3.145,0.078c0.442,0,2.311-0.052,5.605-0.156l0.156,0.137v0.977l-0.156,0.137
					c-0.898,0.026-1.592,0.065-2.08,0.117s-0.843,0.149-1.064,0.293c-0.222,0.144-0.368,0.479-0.439,1.006
					c-0.072,0.527-0.107,1.26-0.107,2.197l-0.039,4.492V17.069z"/>
				<path d="M85.174,3.67l0.176,0.156v0.957L85.193,4.92c-1.433,0.039-2.321,0.11-2.666,0.215c-0.345,0.104-0.589,0.276-0.732,0.518
					c-0.144,0.241-0.225,0.713-0.244,1.416s-0.056,2.688-0.107,5.957v9.004c0,1.302,0.02,2.773,0.059,4.414s0.12,2.595,0.244,2.861
					c0.124,0.267,0.348,0.462,0.674,0.586c0.325,0.124,1.25,0.205,2.773,0.244l0.156,0.137v0.957l-0.176,0.156
					c-2.123-0.117-3.972-0.176-5.547-0.176c-1.068,0-2.884,0.059-5.449,0.176l-0.176-0.156v-0.938l0.156-0.156
					c1.432-0.039,2.321-0.11,2.666-0.215c0.345-0.104,0.589-0.276,0.732-0.518c0.143-0.241,0.228-0.72,0.254-1.436
					c0.026-0.716,0.059-2.695,0.098-5.938V7.694L71.17,21.795c-1.693,3.528-3.171,6.849-4.434,9.961h-0.762
					c-0.729-1.68-1.328-3.021-1.797-4.023L54.842,8.338V21.99c0,1.276,0.016,2.744,0.049,4.404c0.032,1.66,0.114,2.62,0.244,2.881
					c0.13,0.261,0.358,0.456,0.684,0.586c0.325,0.13,1.25,0.208,2.773,0.234l0.156,0.156v0.938l-0.176,0.176l-1.25-0.059
					c-1.289-0.065-2.396-0.098-3.32-0.098c-0.417,0-1.973,0.052-4.668,0.156l-0.156-0.156v-0.938l0.156-0.176
					c1.432-0.026,2.317-0.091,2.656-0.195c0.338-0.104,0.583-0.28,0.732-0.527c0.149-0.247,0.234-0.71,0.254-1.387
					s0.049-2.676,0.088-5.996v-8.945c0-1.185-0.017-2.627-0.049-4.326c-0.033-1.699-0.111-2.683-0.234-2.949
					c-0.124-0.267-0.349-0.466-0.674-0.596c-0.326-0.13-1.25-0.208-2.773-0.234l-0.156-0.156V3.846l0.176-0.176
					c0.898,0.065,2.109,0.098,3.633,0.098c1.432,0,2.682-0.032,3.75-0.098c1.094,2.526,2.142,4.812,3.145,6.855l7.402,15.195
					l6.68-13.926c1.81-3.763,3.027-6.472,3.652-8.125c1.25,0.065,2.48,0.098,3.691,0.098C82.4,3.768,83.689,3.736,85.174,3.67z"/>
				<path d="M86.971,31.19v-0.938l4.707-5.82l11.152-14.355c1.692-2.161,2.832-3.711,3.418-4.648h-0.801l-3.145-0.02
					c-2.761,0-4.984,0.042-6.67,0.127c-1.687,0.085-2.8,0.173-3.34,0.264C91.752,5.89,91.42,6.017,91.297,6.18
					c-0.124,0.163-0.225,0.55-0.303,1.162L90.721,9.92l-0.176,0.176h-0.918L89.451,9.92c0.065-0.989,0.098-1.777,0.098-2.363
					c0-1.589-0.033-2.845-0.098-3.77l0.176-0.176c4.648,0.104,7.897,0.156,9.746,0.156c3.073,0,7.109-0.052,12.109-0.156
					l0.176,0.176v0.996c-1.433,1.692-2.435,2.903-3.008,3.633l-16.27,20.957l7.91,0.137c1.575,0,3.164-0.039,4.766-0.117
					s2.656-0.156,3.164-0.234s0.856-0.192,1.045-0.342c0.188-0.149,0.315-0.3,0.381-0.449c0.065-0.149,0.169-0.596,0.313-1.338
					l0.43-2.617l0.176-0.156h0.918l0.156,0.156c-0.091,0.833-0.183,3.099-0.273,6.797l-0.176,0.156
					c-5.495-0.104-9.831-0.156-13.008-0.156c-2.227,0-5.905,0.052-11.035,0.156L86.971,31.19z"/>
			</g>
			<g enable-background="new    ">
				<path d="M125.118,4.95l0.854,0.027c0.561,0.019,0.927,0.027,1.101,0.027c0.155,0,0.809-0.019,1.962-0.055l0.055,0.048V5.34
					l-0.055,0.048c-0.314,0.009-0.557,0.022-0.728,0.041s-0.295,0.053-0.373,0.103s-0.129,0.168-0.154,0.352
					c-0.025,0.186-0.038,0.441-0.038,0.77l-0.014,1.572v3.165l0.007,1.333c0.004,0.515,0.018,0.848,0.041,0.998
					s0.056,0.251,0.099,0.301s0.126,0.092,0.25,0.127c0.123,0.033,0.426,0.06,0.909,0.078l0.055,0.041v0.342l-0.055,0.055
					c-0.023,0-0.424-0.014-1.203-0.041c-0.324-0.009-0.577-0.014-0.759-0.014c-0.141,0-0.793,0.019-1.955,0.055l-0.055-0.055v-0.342
					l0.055-0.041c0.424-0.019,0.707-0.041,0.848-0.068s0.236-0.063,0.284-0.105c0.048-0.044,0.086-0.136,0.116-0.277
					s0.047-0.456,0.051-0.943l0.007-1.442V8.225l-0.014-1.333c-0.004-0.52-0.017-0.854-0.038-1.005s-0.052-0.251-0.096-0.301
					s-0.126-0.091-0.25-0.123s-0.426-0.057-0.909-0.075l-0.055-0.048V4.998L125.118,4.95z"/>
				<path d="M131.77,8.095l0.13,0.089c-0.027,0.306-0.045,0.706-0.055,1.203c0.365-0.301,0.711-0.606,1.039-0.916
					c0.096-0.087,0.186-0.15,0.27-0.191s0.225-0.084,0.42-0.13s0.396-0.068,0.602-0.068c0.346,0,0.683,0.07,1.008,0.212
					s0.572,0.309,0.738,0.502c0.167,0.194,0.281,0.423,0.345,0.688s0.096,0.59,0.096,0.978v1.203c0,0.077,0.011,0.645,0.034,1.702
					c0.009,0.433,0.057,0.69,0.144,0.772s0.369,0.123,0.848,0.123l0.055,0.055v0.294l-0.055,0.055
					c-0.579-0.036-0.971-0.055-1.176-0.055c-0.119,0-0.451,0.019-0.998,0.055l-0.082-0.075c0.059-0.593,0.089-1.365,0.089-2.317
					v-0.896c0-0.538-0.013-0.925-0.038-1.162s-0.102-0.452-0.229-0.646c-0.127-0.194-0.298-0.345-0.513-0.451
					c-0.214-0.107-0.469-0.161-0.766-0.161c-0.237,0-0.44,0.024-0.608,0.071c-0.168,0.049-0.358,0.146-0.567,0.295
					c-0.209,0.147-0.365,0.287-0.465,0.416c-0.1,0.131-0.161,0.251-0.181,0.363c-0.021,0.111-0.031,0.35-0.031,0.714v1.189
					c0,0.101,0.009,0.423,0.027,0.968c0.018,0.544,0.038,0.862,0.058,0.953s0.051,0.157,0.092,0.198s0.091,0.067,0.15,0.079
					c0.059,0.011,0.305,0.03,0.738,0.058l0.062,0.055v0.287l-0.055,0.062c-0.57-0.036-1.119-0.055-1.647-0.055
					c-0.524,0-1.071,0.019-1.641,0.055l-0.062-0.062v-0.287l0.062-0.055c0.442-0.027,0.691-0.048,0.749-0.062
					s0.107-0.042,0.15-0.086c0.043-0.043,0.073-0.109,0.089-0.197c0.016-0.09,0.034-0.383,0.055-0.883
					c0.021-0.498,0.031-0.876,0.031-1.131v-1.347c0-0.183-0.009-0.431-0.027-0.745s-0.033-0.508-0.044-0.581
					s-0.047-0.126-0.106-0.161c-0.059-0.033-0.178-0.051-0.355-0.051l-0.574-0.007l-0.062-0.055V8.662l0.055-0.055
					C130.439,8.503,131.172,8.332,131.77,8.095z"/>
				<path d="M138.271,12.6h0.294l0.062,0.062c0.009,0.383,0.032,0.711,0.068,0.984c0.141,0.214,0.385,0.389,0.731,0.522
					c0.346,0.135,0.688,0.202,1.025,0.202c0.483,0,0.869-0.13,1.159-0.39s0.434-0.569,0.434-0.93c0-0.196-0.052-0.365-0.157-0.51
					c-0.105-0.143-0.263-0.262-0.475-0.355c-0.212-0.093-0.591-0.203-1.138-0.331c-0.469-0.109-0.797-0.194-0.984-0.257
					c-0.187-0.061-0.367-0.165-0.54-0.311s-0.305-0.324-0.396-0.537c-0.091-0.211-0.137-0.445-0.137-0.7
					c0-0.61,0.243-1.1,0.728-1.466c0.485-0.367,1.09-0.551,1.815-0.551c0.305,0,0.638,0.042,0.998,0.127
					c0.36,0.084,0.633,0.165,0.82,0.242l0.062,0.096c-0.037,0.183-0.059,0.661-0.068,1.436l-0.062,0.062h-0.273l-0.062-0.062
					c-0.018-0.278-0.043-0.473-0.075-0.584c-0.032-0.112-0.114-0.232-0.246-0.363c-0.132-0.129-0.319-0.238-0.561-0.328
					c-0.242-0.088-0.497-0.133-0.766-0.133c-0.278,0-0.512,0.041-0.701,0.123s-0.342,0.206-0.458,0.373
					c-0.116,0.166-0.174,0.367-0.174,0.604c0,0.173,0.035,0.328,0.106,0.465s0.179,0.247,0.325,0.331
					c0.146,0.085,0.298,0.146,0.458,0.182l0.745,0.191c0.638,0.155,1.095,0.289,1.371,0.403s0.489,0.286,0.639,0.517
					c0.15,0.229,0.226,0.509,0.226,0.837c0,0.629-0.26,1.169-0.779,1.62s-1.187,0.677-2.003,0.677c-0.287,0-0.644-0.032-1.07-0.096
					s-0.79-0.135-1.09-0.212l-0.034-0.089l0.068-0.458c0.023-0.142,0.037-0.283,0.041-0.428c0.004-0.143,0.009-0.445,0.014-0.905
					L138.271,12.6z"/>
				<path d="M143.828,9.243V9.066l0.048-0.068c0.428-0.159,0.775-0.308,1.039-0.444c0-1.189-0.014-1.882-0.041-2.078
					c0.469-0.164,0.854-0.34,1.155-0.526l0.164,0.137c-0.045,0.287-0.1,1.121-0.164,2.502c0.228,0.005,0.474,0.007,0.738,0.007
					c0.538,0,0.923-0.014,1.155-0.041l0.048,0.048l-0.13,0.574l-0.055,0.062c-0.232-0.005-0.49-0.007-0.772-0.007
					c-0.255,0-0.583,0.002-0.984,0.007l-0.041,2.782c0,0.643,0.015,1.063,0.044,1.261c0.03,0.199,0.112,0.354,0.246,0.465
					c0.134,0.112,0.334,0.168,0.598,0.168c0.305,0,0.588-0.08,0.848-0.239l0.164,0.246c-0.109,0.077-0.372,0.306-0.786,0.684
					c-0.237,0.109-0.479,0.164-0.725,0.164c-1.025,0-1.538-0.497-1.538-1.49c0-0.364,0.009-0.675,0.027-0.93
					c0.004-0.077,0.007-0.157,0.007-0.239V9.271h-0.28c-0.205,0-0.44,0.009-0.704,0.027L143.828,9.243z"/>
				<path d="M150.63,8.095l0.13,0.089c-0.05,0.597-0.075,1.355-0.075,2.276v1.545c0,0.101,0.009,0.423,0.027,0.968
					c0.018,0.544,0.038,0.862,0.058,0.953s0.051,0.157,0.092,0.198s0.091,0.067,0.15,0.079c0.059,0.011,0.305,0.03,0.738,0.058
					l0.062,0.055v0.287l-0.055,0.062c-0.57-0.036-1.119-0.055-1.647-0.055c-0.524,0-1.071,0.019-1.641,0.055l-0.062-0.062v-0.287
					l0.062-0.055c0.442-0.027,0.691-0.048,0.749-0.062s0.107-0.042,0.15-0.086c0.043-0.043,0.073-0.109,0.089-0.197
					c0.016-0.09,0.034-0.383,0.055-0.883c0.021-0.498,0.031-0.876,0.031-1.131v-1.347c0-0.183-0.009-0.431-0.027-0.745
					s-0.033-0.508-0.044-0.581s-0.047-0.126-0.106-0.161c-0.059-0.033-0.178-0.051-0.355-0.051l-0.574-0.007l-0.062-0.055V8.662
					l0.055-0.055C149.299,8.503,150.033,8.332,150.63,8.095z M150.049,5.039c0.214,0,0.396,0.075,0.547,0.226
					s0.226,0.333,0.226,0.547c0,0.21-0.075,0.39-0.226,0.54s-0.333,0.226-0.547,0.226c-0.209,0-0.391-0.074-0.543-0.222
					c-0.153-0.148-0.229-0.33-0.229-0.544s0.076-0.396,0.229-0.547S149.839,5.039,150.049,5.039z"/>
				<path d="M152.469,9.243V9.066l0.048-0.068c0.428-0.159,0.775-0.308,1.039-0.444c0-1.189-0.014-1.882-0.041-2.078
					c0.469-0.164,0.854-0.34,1.155-0.526l0.164,0.137c-0.045,0.287-0.1,1.121-0.164,2.502c0.228,0.005,0.474,0.007,0.738,0.007
					c0.538,0,0.923-0.014,1.155-0.041l0.048,0.048l-0.13,0.574l-0.055,0.062c-0.232-0.005-0.49-0.007-0.772-0.007
					c-0.255,0-0.583,0.002-0.984,0.007l-0.041,2.782c0,0.643,0.015,1.063,0.044,1.261c0.03,0.199,0.112,0.354,0.246,0.465
					c0.134,0.112,0.334,0.168,0.598,0.168c0.305,0,0.588-0.08,0.848-0.239l0.164,0.246c-0.109,0.077-0.372,0.306-0.786,0.684
					c-0.237,0.109-0.479,0.164-0.725,0.164c-1.025,0-1.538-0.497-1.538-1.49c0-0.364,0.009-0.675,0.027-0.93
					c0.004-0.077,0.007-0.157,0.007-0.239V9.271h-0.28c-0.205,0-0.44,0.009-0.704,0.027L152.469,9.243z"/>
				<path d="M159.086,8.095l0.13,0.089c-0.05,0.597-0.075,1.355-0.075,2.276v1.593c0,0.583,0.044,0.989,0.133,1.217
					s0.243,0.402,0.461,0.523c0.219,0.12,0.479,0.181,0.779,0.181c0.333,0,0.636-0.065,0.909-0.194
					c0.273-0.131,0.502-0.313,0.687-0.551s0.291-0.396,0.318-0.479s0.045-0.313,0.055-0.69l0.021-0.766v-0.738
					c0-0.183-0.009-0.431-0.027-0.745s-0.033-0.508-0.044-0.581s-0.047-0.126-0.106-0.161c-0.059-0.033-0.178-0.051-0.355-0.051
					l-0.574-0.007l-0.062-0.055V8.662l0.055-0.055c0.871-0.104,1.604-0.275,2.201-0.513l0.13,0.089
					c-0.05,0.597-0.075,1.355-0.075,2.276v1.203c0,0.068,0.011,0.627,0.034,1.675c0.009,0.388,0.033,0.623,0.072,0.707
					c0.039,0.085,0.092,0.145,0.161,0.178c0.068,0.035,0.271,0.052,0.608,0.052h0.191l0.062,0.055v0.273l-0.055,0.062
					c-0.643-0.036-1.073-0.055-1.292-0.055c-0.278,0-0.599,0.016-0.964,0.048l-0.062-0.055c0.027-0.465,0.048-0.859,0.062-1.183
					c-0.287,0.224-0.615,0.521-0.984,0.896c-0.141,0.142-0.344,0.26-0.608,0.355s-0.565,0.144-0.902,0.144
					c-0.51,0-0.908-0.081-1.193-0.242c-0.285-0.162-0.486-0.386-0.605-0.67c-0.119-0.285-0.178-0.776-0.178-1.474l0.007-0.54v-1.333
					c0-0.183-0.009-0.431-0.027-0.745s-0.033-0.508-0.044-0.581s-0.047-0.126-0.106-0.161c-0.059-0.033-0.178-0.051-0.355-0.051
					l-0.574-0.007l-0.062-0.055V8.662l0.055-0.055C157.755,8.503,158.489,8.332,159.086,8.095z"/>
				<path d="M165.478,9.243V9.066l0.048-0.068c0.428-0.159,0.775-0.308,1.039-0.444c0-1.189-0.014-1.882-0.041-2.078
					c0.469-0.164,0.854-0.34,1.155-0.526l0.164,0.137c-0.045,0.287-0.1,1.121-0.164,2.502c0.228,0.005,0.474,0.007,0.738,0.007
					c0.538,0,0.923-0.014,1.155-0.041l0.048,0.048l-0.13,0.574l-0.055,0.062c-0.232-0.005-0.49-0.007-0.772-0.007
					c-0.255,0-0.583,0.002-0.984,0.007l-0.041,2.782c0,0.643,0.015,1.063,0.044,1.261c0.03,0.199,0.112,0.354,0.246,0.465
					c0.134,0.112,0.334,0.168,0.598,0.168c0.305,0,0.588-0.08,0.848-0.239l0.164,0.246c-0.109,0.077-0.372,0.306-0.786,0.684
					c-0.237,0.109-0.479,0.164-0.725,0.164c-1.025,0-1.538-0.497-1.538-1.49c0-0.364,0.009-0.675,0.027-0.93
					c0.004-0.077,0.007-0.157,0.007-0.239V9.271h-0.28c-0.205,0-0.44,0.009-0.704,0.027L165.478,9.243z"/>
				<path d="M177.167,14.261l0.055,0.055v0.287l-0.055,0.062c-0.142,0-0.407-0.009-0.8-0.027c-0.355-0.019-0.722-0.027-1.101-0.027
					c-0.492,0-1.042,0.019-1.647,0.055l-0.055-0.062v-0.287l0.055-0.055c0.442-0.027,0.693-0.048,0.752-0.062
					s0.109-0.042,0.15-0.086c0.041-0.043,0.069-0.109,0.085-0.197c0.016-0.09,0.034-0.383,0.055-0.883
					c0.021-0.498,0.031-0.876,0.031-1.131V9.264l-0.882,0.048l-0.062-0.055V9.086l0.048-0.068l0.896-0.458V8.15
					c0-0.456,0.021-0.801,0.062-1.036c0.041-0.234,0.117-0.451,0.229-0.648c0.112-0.199,0.307-0.449,0.584-0.752
					c0.278-0.304,0.522-0.552,0.731-0.746c0.209-0.193,0.393-0.323,0.547-0.389c0.154-0.066,0.338-0.1,0.547-0.1
					c0.174,0,0.359,0.034,0.561,0.103l-0.007,1.121l-0.157,0.062c-0.256-0.228-0.551-0.342-0.889-0.342
					c-0.236,0-0.442,0.049-0.615,0.146c-0.173,0.099-0.292,0.258-0.355,0.479c-0.064,0.222-0.096,0.587-0.096,1.098V8.56h0.731
					c0.378,0,0.735-0.014,1.073-0.041l0.062,0.075l-0.123,0.602l-0.062,0.068c-0.137-0.005-0.226-0.007-0.267-0.007L176.36,9.25
					h-0.526v2.755c0,0.146,0.01,0.479,0.031,1.001c0.021,0.522,0.04,0.829,0.058,0.92s0.049,0.157,0.092,0.198
					s0.114,0.07,0.212,0.089S176.639,14.247,177.167,14.261z"/>
				<path d="M180.257,8.095l0.13,0.089c-0.051,0.597-0.075,1.355-0.075,2.276v1.593c0,0.583,0.044,0.989,0.134,1.217
					c0.088,0.228,0.242,0.402,0.461,0.523c0.219,0.12,0.479,0.181,0.779,0.181c0.332,0,0.636-0.065,0.909-0.194
					c0.273-0.131,0.503-0.313,0.687-0.551c0.186-0.237,0.291-0.396,0.318-0.479s0.045-0.313,0.055-0.69l0.021-0.766v-0.738
					c0-0.183-0.009-0.431-0.027-0.745s-0.033-0.508-0.044-0.581c-0.012-0.073-0.047-0.126-0.106-0.161
					c-0.06-0.033-0.178-0.051-0.355-0.051l-0.574-0.007l-0.062-0.055V8.662l0.055-0.055c0.871-0.104,1.604-0.275,2.201-0.513
					l0.13,0.089c-0.05,0.597-0.075,1.355-0.075,2.276v1.203c0,0.068,0.012,0.627,0.034,1.675c0.009,0.388,0.033,0.623,0.071,0.707
					c0.039,0.085,0.093,0.145,0.161,0.178c0.068,0.035,0.271,0.052,0.608,0.052h0.191l0.062,0.055v0.273l-0.055,0.062
					c-0.643-0.036-1.073-0.055-1.292-0.055c-0.277,0-0.6,0.016-0.964,0.048l-0.062-0.055c0.027-0.465,0.048-0.859,0.062-1.183
					c-0.287,0.224-0.615,0.521-0.984,0.896c-0.142,0.142-0.345,0.26-0.608,0.355s-0.564,0.144-0.902,0.144
					c-0.51,0-0.908-0.081-1.193-0.242c-0.284-0.162-0.486-0.386-0.604-0.67c-0.118-0.285-0.178-0.776-0.178-1.474l0.007-0.54v-1.333
					c0-0.183-0.01-0.431-0.027-0.745s-0.033-0.508-0.045-0.581c-0.011-0.073-0.047-0.126-0.105-0.161
					c-0.059-0.033-0.178-0.051-0.355-0.051l-0.574-0.007l-0.062-0.055V8.662l0.055-0.055C178.926,8.503,179.66,8.332,180.257,8.095z
					 M180.414,6.659c-0.205,0-0.381-0.073-0.526-0.219s-0.219-0.321-0.219-0.526s0.073-0.381,0.219-0.526s0.321-0.219,0.526-0.219
					c0.209,0,0.387,0.071,0.529,0.216c0.145,0.143,0.216,0.319,0.216,0.529c0,0.205-0.073,0.381-0.219,0.526
					S180.619,6.659,180.414,6.659z M183.306,6.659c-0.205,0-0.38-0.073-0.526-0.219s-0.219-0.321-0.219-0.526
					c0-0.21,0.072-0.387,0.215-0.529c0.145-0.145,0.32-0.216,0.53-0.216s0.386,0.071,0.53,0.216
					c0.143,0.143,0.215,0.319,0.215,0.529c0,0.205-0.072,0.381-0.219,0.526S183.511,6.659,183.306,6.659z"/>
				<path d="M188.959,8.095l0.13,0.089c-0.027,0.265-0.048,0.733-0.062,1.408l0.513-0.649c0.169-0.214,0.317-0.38,0.448-0.495
					c0.129-0.117,0.281-0.207,0.454-0.271s0.351-0.096,0.533-0.096c0.2,0,0.39,0.041,0.567,0.123l0.048,0.096
					c-0.073,0.606-0.114,1.14-0.123,1.6h-0.308c-0.182-0.419-0.477-0.629-0.882-0.629c-0.282,0-0.528,0.09-0.738,0.271
					c-0.21,0.18-0.35,0.405-0.421,0.676c-0.07,0.271-0.105,0.614-0.105,1.029v0.759c0,0.137,0.01,0.472,0.027,1.005
					s0.037,0.841,0.059,0.923c0.02,0.082,0.052,0.143,0.096,0.181c0.043,0.039,0.1,0.065,0.17,0.079
					c0.071,0.014,0.396,0.036,0.975,0.068l0.062,0.055v0.287l-0.062,0.062c-0.605-0.036-1.24-0.055-1.9-0.055
					c-0.523,0-1.07,0.019-1.641,0.055l-0.062-0.062v-0.287l0.062-0.055c0.441-0.027,0.691-0.048,0.748-0.062
					c0.058-0.014,0.107-0.042,0.15-0.086c0.044-0.043,0.073-0.109,0.09-0.197c0.016-0.09,0.033-0.383,0.055-0.883
					c0.02-0.498,0.03-0.876,0.03-1.131v-1.347c0-0.183-0.009-0.431-0.027-0.745s-0.033-0.508-0.044-0.581
					c-0.012-0.073-0.047-0.126-0.106-0.161c-0.06-0.033-0.178-0.051-0.355-0.051l-0.574-0.007l-0.062-0.055V8.662l0.055-0.055
					C187.629,8.503,188.361,8.332,188.959,8.095z"/>
				<path d="M198.379,9.66c1.145-1.034,1.97-1.806,2.479-2.314c0.508-0.508,0.927-0.927,1.258-1.258
					c0.33-0.33,0.527-0.543,0.591-0.639V5.005l0.068-0.055c0.347,0.019,0.725,0.027,1.135,0.027c0.091,0,0.451-0.007,1.08-0.021
					l0.068,0.062V5.34l-0.055,0.055c-0.424,0-0.714,0.023-0.868,0.072c-0.154,0.047-0.382,0.193-0.68,0.438
					c-0.299,0.243-0.643,0.543-1.029,0.898l-2.769,2.529l4.115,3.808c0.661,0.615,1.031,0.95,1.11,1.005
					c0.08,0.055,0.246,0.087,0.496,0.096l0.048,0.055v0.287l-0.048,0.055c-0.264-0.019-0.537-0.027-0.82-0.027
					c-0.168,0-0.537,0.009-1.107,0.027c-0.414-0.392-0.778-0.738-1.09-1.039c-0.313-0.301-1.641-1.522-3.982-3.664v1.456
					l0.007,1.333c0.005,0.515,0.019,0.848,0.041,0.998s0.056,0.251,0.099,0.301c0.044,0.05,0.127,0.092,0.25,0.127
					c0.123,0.033,0.426,0.06,0.909,0.078l0.055,0.041v0.342l-0.055,0.055c-0.022,0-0.424-0.014-1.203-0.041
					c-0.323-0.009-0.577-0.014-0.759-0.014c-0.141,0-0.793,0.019-1.955,0.055l-0.055-0.055v-0.342l0.055-0.041
					c0.424-0.019,0.707-0.041,0.848-0.068s0.236-0.063,0.283-0.105c0.049-0.044,0.087-0.136,0.117-0.277
					c0.029-0.142,0.047-0.456,0.051-0.943l0.007-1.442V8.225l-0.014-1.333c-0.005-0.52-0.017-0.854-0.038-1.005
					c-0.02-0.15-0.052-0.251-0.096-0.301c-0.043-0.05-0.126-0.091-0.249-0.123s-0.427-0.057-0.909-0.075l-0.055-0.048V4.998
					l0.055-0.048l0.854,0.027c0.561,0.019,0.927,0.027,1.101,0.027c0.154,0,0.809-0.019,1.962-0.055l0.055,0.048V5.34l-0.055,0.048
					c-0.314,0.009-0.558,0.022-0.728,0.041c-0.172,0.019-0.295,0.053-0.373,0.103s-0.129,0.168-0.154,0.352
					c-0.024,0.186-0.037,0.441-0.037,0.77l-0.014,1.572V9.66z"/>
				<path d="M205.994,11.479c0-0.542,0.111-1.065,0.335-1.568c0.224-0.504,0.612-0.939,1.165-1.307
					c0.555-0.366,1.211-0.55,1.973-0.55c0.957,0,1.736,0.302,2.338,0.905c0.602,0.604,0.902,1.38,0.902,2.328
					c0,1.044-0.346,1.902-1.035,2.577c-0.691,0.675-1.523,1.012-2.499,1.012c-0.638,0-1.208-0.172-1.709-0.517
					c-0.501-0.344-0.872-0.764-1.11-1.261C206.113,12.602,205.994,12.062,205.994,11.479z M207.286,11.007
					c0,0.638,0.082,1.209,0.246,1.712c0.164,0.504,0.424,0.908,0.779,1.214s0.761,0.458,1.217,0.458
					c0.538,0,0.981-0.213,1.333-0.639c0.352-0.427,0.526-1.068,0.526-1.925c0-0.971-0.19-1.766-0.571-2.386
					c-0.38-0.62-0.928-0.93-1.644-0.93c-0.593,0-1.056,0.214-1.388,0.643S207.286,10.2,207.286,11.007z"/>
				<path d="M215.688,8.095l0.13,0.089c-0.027,0.301-0.046,0.661-0.055,1.08l0.649-0.595c0.182-0.169,0.303-0.276,0.362-0.325
					c0.06-0.047,0.198-0.104,0.417-0.167s0.449-0.096,0.69-0.096c0.456,0,0.854,0.112,1.196,0.339
					c0.342,0.225,0.595,0.536,0.759,0.933c0.615-0.583,0.974-0.907,1.077-0.971c0.102-0.063,0.266-0.129,0.488-0.194
					c0.223-0.066,0.447-0.1,0.67-0.1c0.359,0,0.69,0.077,0.991,0.232s0.54,0.357,0.718,0.608s0.281,0.521,0.311,0.813
					c0.03,0.292,0.045,0.692,0.045,1.203v0.718c0,0.077,0.014,0.645,0.041,1.702c0.01,0.433,0.057,0.69,0.144,0.772
					s0.366,0.123,0.841,0.123l0.055,0.055v0.294l-0.055,0.055c-0.578-0.036-0.971-0.055-1.176-0.055
					c-0.113,0-0.444,0.019-0.991,0.055l-0.089-0.075c0.059-0.593,0.089-1.365,0.089-2.317v-0.82c0-0.725-0.034-1.231-0.103-1.521
					c-0.068-0.289-0.229-0.525-0.479-0.711c-0.25-0.184-0.549-0.276-0.896-0.276c-0.246,0-0.476,0.049-0.69,0.147
					c-0.215,0.098-0.406,0.243-0.578,0.438c-0.17,0.193-0.266,0.373-0.283,0.539c-0.018,0.167-0.027,0.474-0.027,0.92v0.854
					c0,0.2,0.01,0.576,0.027,1.128s0.037,0.873,0.059,0.964c0.02,0.091,0.052,0.156,0.096,0.194c0.043,0.039,0.093,0.064,0.15,0.076
					c0.057,0.011,0.301,0.03,0.734,0.058l0.062,0.055v0.287l-0.055,0.062c-0.569-0.036-1.118-0.055-1.647-0.055
					c-0.488,0-1.035,0.019-1.641,0.055l-0.062-0.062v-0.287l0.062-0.055c0.441-0.027,0.691-0.048,0.748-0.062
					c0.058-0.014,0.107-0.042,0.15-0.086c0.044-0.043,0.073-0.109,0.09-0.197c0.016-0.09,0.033-0.383,0.055-0.883
					c0.02-0.498,0.03-0.876,0.03-1.131v-0.779c0-0.515-0.035-0.911-0.106-1.189c-0.07-0.278-0.222-0.513-0.454-0.704
					s-0.524-0.287-0.875-0.287c-0.273,0-0.522,0.054-0.749,0.161c-0.225,0.106-0.41,0.238-0.553,0.396
					c-0.145,0.156-0.232,0.304-0.268,0.44c-0.033,0.137-0.051,0.433-0.051,0.889v1.012c0,0.2,0.01,0.576,0.027,1.128
					s0.037,0.873,0.059,0.964c0.02,0.091,0.052,0.156,0.096,0.194c0.043,0.039,0.093,0.064,0.15,0.076
					c0.057,0.011,0.301,0.03,0.734,0.058l0.062,0.055v0.287l-0.055,0.062c-0.569-0.036-1.118-0.055-1.647-0.055
					c-0.523,0-1.07,0.019-1.641,0.055l-0.062-0.062v-0.287l0.062-0.055c0.441-0.027,0.691-0.048,0.748-0.062
					c0.058-0.014,0.107-0.042,0.15-0.086c0.044-0.043,0.073-0.109,0.09-0.197c0.016-0.09,0.033-0.383,0.055-0.883
					c0.02-0.498,0.03-0.876,0.03-1.131v-1.347c0-0.183-0.009-0.431-0.027-0.745s-0.033-0.508-0.044-0.581
					c-0.012-0.073-0.047-0.126-0.106-0.161c-0.06-0.033-0.178-0.051-0.355-0.051l-0.574-0.007l-0.062-0.055V8.662l0.055-0.055
					C214.357,8.503,215.09,8.332,215.688,8.095z"/>
				<path d="M228.047,8.095l0.13,0.089c-0.027,0.301-0.046,0.661-0.055,1.08l0.649-0.595c0.182-0.169,0.303-0.276,0.362-0.325
					c0.06-0.047,0.198-0.104,0.417-0.167s0.449-0.096,0.69-0.096c0.456,0,0.854,0.112,1.196,0.339
					c0.342,0.225,0.595,0.536,0.759,0.933c0.615-0.583,0.974-0.907,1.077-0.971c0.102-0.063,0.266-0.129,0.488-0.194
					c0.223-0.066,0.447-0.1,0.67-0.1c0.359,0,0.69,0.077,0.991,0.232s0.54,0.357,0.718,0.608s0.281,0.521,0.311,0.813
					c0.03,0.292,0.045,0.692,0.045,1.203v0.718c0,0.077,0.014,0.645,0.041,1.702c0.01,0.433,0.057,0.69,0.144,0.772
					s0.366,0.123,0.841,0.123l0.055,0.055v0.294l-0.055,0.055c-0.578-0.036-0.971-0.055-1.176-0.055
					c-0.113,0-0.444,0.019-0.991,0.055l-0.089-0.075c0.059-0.593,0.089-1.365,0.089-2.317v-0.82c0-0.725-0.034-1.231-0.103-1.521
					c-0.068-0.289-0.229-0.525-0.479-0.711c-0.25-0.184-0.549-0.276-0.896-0.276c-0.246,0-0.476,0.049-0.69,0.147
					c-0.215,0.098-0.406,0.243-0.578,0.438c-0.17,0.193-0.266,0.373-0.283,0.539c-0.018,0.167-0.027,0.474-0.027,0.92v0.854
					c0,0.2,0.01,0.576,0.027,1.128s0.037,0.873,0.059,0.964c0.02,0.091,0.052,0.156,0.096,0.194c0.043,0.039,0.093,0.064,0.15,0.076
					c0.057,0.011,0.301,0.03,0.734,0.058l0.062,0.055v0.287l-0.055,0.062c-0.569-0.036-1.118-0.055-1.647-0.055
					c-0.488,0-1.035,0.019-1.641,0.055l-0.062-0.062v-0.287l0.062-0.055c0.441-0.027,0.691-0.048,0.748-0.062
					c0.058-0.014,0.107-0.042,0.15-0.086c0.044-0.043,0.073-0.109,0.09-0.197c0.016-0.09,0.033-0.383,0.055-0.883
					c0.02-0.498,0.03-0.876,0.03-1.131v-0.779c0-0.515-0.035-0.911-0.106-1.189c-0.07-0.278-0.222-0.513-0.454-0.704
					s-0.524-0.287-0.875-0.287c-0.273,0-0.522,0.054-0.749,0.161c-0.225,0.106-0.41,0.238-0.553,0.396
					c-0.145,0.156-0.232,0.304-0.268,0.44c-0.033,0.137-0.051,0.433-0.051,0.889v1.012c0,0.2,0.01,0.576,0.027,1.128
					s0.037,0.873,0.059,0.964c0.02,0.091,0.052,0.156,0.096,0.194c0.043,0.039,0.093,0.064,0.15,0.076
					c0.057,0.011,0.301,0.03,0.734,0.058l0.062,0.055v0.287l-0.055,0.062c-0.569-0.036-1.118-0.055-1.647-0.055
					c-0.523,0-1.07,0.019-1.641,0.055l-0.062-0.062v-0.287l0.062-0.055c0.441-0.027,0.691-0.048,0.748-0.062
					c0.058-0.014,0.107-0.042,0.15-0.086c0.044-0.043,0.073-0.109,0.09-0.197c0.016-0.09,0.033-0.383,0.055-0.883
					c0.02-0.498,0.03-0.876,0.03-1.131v-1.347c0-0.183-0.009-0.431-0.027-0.745s-0.033-0.508-0.044-0.581
					c-0.012-0.073-0.047-0.126-0.106-0.161c-0.06-0.033-0.178-0.051-0.355-0.051l-0.574-0.007l-0.062-0.055V8.662l0.055-0.055
					C226.717,8.503,227.449,8.332,228.047,8.095z"/>
				<path d="M240.256,8.095l0.13,0.089c-0.05,0.597-0.075,1.355-0.075,2.276v1.593c0,0.583,0.045,0.989,0.133,1.217
					c0.09,0.228,0.243,0.402,0.462,0.523c0.219,0.12,0.479,0.181,0.779,0.181c0.333,0,0.636-0.065,0.909-0.194
					c0.273-0.131,0.502-0.313,0.688-0.551c0.184-0.237,0.29-0.396,0.317-0.479s0.046-0.313,0.055-0.69l0.021-0.766v-0.738
					c0-0.183-0.01-0.431-0.027-0.745s-0.033-0.508-0.045-0.581c-0.011-0.073-0.047-0.126-0.105-0.161
					c-0.059-0.033-0.178-0.051-0.355-0.051l-0.574-0.007l-0.062-0.055V8.662l0.055-0.055c0.87-0.104,1.604-0.275,2.201-0.513
					l0.13,0.089c-0.051,0.597-0.075,1.355-0.075,2.276v1.203c0,0.068,0.011,0.627,0.034,1.675c0.01,0.388,0.033,0.623,0.072,0.707
					c0.038,0.085,0.092,0.145,0.16,0.178c0.068,0.035,0.271,0.052,0.608,0.052h0.191l0.062,0.055v0.273l-0.055,0.062
					c-0.643-0.036-1.073-0.055-1.292-0.055c-0.278,0-0.599,0.016-0.964,0.048l-0.062-0.055c0.027-0.465,0.048-0.859,0.062-1.183
					c-0.287,0.224-0.615,0.521-0.984,0.896c-0.141,0.142-0.344,0.26-0.608,0.355s-0.565,0.144-0.902,0.144
					c-0.511,0-0.908-0.081-1.192-0.242c-0.285-0.162-0.486-0.386-0.605-0.67c-0.119-0.285-0.178-0.776-0.178-1.474l0.007-0.54
					v-1.333c0-0.183-0.009-0.431-0.027-0.745s-0.033-0.508-0.044-0.581c-0.012-0.073-0.047-0.126-0.106-0.161
					c-0.06-0.033-0.178-0.051-0.355-0.051l-0.574-0.007L238,8.956V8.662l0.055-0.055C238.926,8.503,239.658,8.332,240.256,8.095z"/>
				<path d="M248.671,8.095l0.13,0.089c-0.027,0.306-0.045,0.706-0.055,1.203c0.365-0.301,0.711-0.606,1.039-0.916
					c0.096-0.087,0.186-0.15,0.27-0.191c0.085-0.041,0.225-0.084,0.421-0.13s0.396-0.068,0.602-0.068
					c0.347,0,0.683,0.07,1.009,0.212c0.325,0.142,0.571,0.309,0.738,0.502c0.166,0.194,0.281,0.423,0.345,0.688
					s0.096,0.59,0.096,0.978v1.203c0,0.077,0.011,0.645,0.034,1.702c0.01,0.433,0.057,0.69,0.144,0.772s0.369,0.123,0.848,0.123
					l0.055,0.055v0.294l-0.055,0.055c-0.579-0.036-0.971-0.055-1.176-0.055c-0.118,0-0.451,0.019-0.998,0.055l-0.082-0.075
					c0.06-0.593,0.089-1.365,0.089-2.317v-0.896c0-0.538-0.013-0.925-0.037-1.162c-0.025-0.237-0.102-0.452-0.229-0.646
					c-0.128-0.194-0.298-0.345-0.513-0.451c-0.215-0.107-0.469-0.161-0.766-0.161c-0.236,0-0.439,0.024-0.608,0.071
					c-0.169,0.049-0.358,0.146-0.567,0.295c-0.209,0.147-0.365,0.287-0.465,0.416c-0.1,0.131-0.16,0.251-0.182,0.363
					c-0.02,0.111-0.03,0.35-0.03,0.714v1.189c0,0.101,0.009,0.423,0.027,0.968c0.019,0.544,0.038,0.862,0.058,0.953
					c0.021,0.091,0.052,0.157,0.093,0.198s0.091,0.067,0.15,0.079c0.06,0.011,0.306,0.03,0.738,0.058l0.062,0.055v0.287
					l-0.055,0.062c-0.57-0.036-1.119-0.055-1.647-0.055c-0.524,0-1.071,0.019-1.641,0.055l-0.062-0.062v-0.287l0.062-0.055
					c0.442-0.027,0.691-0.048,0.749-0.062c0.057-0.014,0.106-0.042,0.15-0.086c0.043-0.043,0.072-0.109,0.088-0.197
					c0.017-0.09,0.035-0.383,0.055-0.883c0.021-0.498,0.031-0.876,0.031-1.131v-1.347c0-0.183-0.01-0.431-0.027-0.745
					s-0.033-0.508-0.045-0.581c-0.011-0.073-0.047-0.126-0.105-0.161c-0.059-0.033-0.178-0.051-0.355-0.051l-0.574-0.007
					l-0.062-0.055V8.662l0.055-0.055C247.34,8.503,248.074,8.332,248.671,8.095z"/>
				<path d="M257.031,8.095l0.13,0.089c-0.05,0.597-0.075,1.355-0.075,2.276v1.545c0,0.101,0.01,0.423,0.027,0.968
					c0.018,0.544,0.037,0.862,0.059,0.953c0.02,0.091,0.051,0.157,0.092,0.198s0.092,0.067,0.15,0.079
					c0.059,0.011,0.305,0.03,0.738,0.058l0.062,0.055v0.287l-0.055,0.062c-0.569-0.036-1.118-0.055-1.647-0.055
					c-0.523,0-1.07,0.019-1.641,0.055l-0.062-0.062v-0.287l0.062-0.055c0.441-0.027,0.691-0.048,0.748-0.062
					c0.058-0.014,0.107-0.042,0.15-0.086c0.044-0.043,0.073-0.109,0.09-0.197c0.016-0.09,0.033-0.383,0.055-0.883
					c0.02-0.498,0.03-0.876,0.03-1.131v-1.347c0-0.183-0.009-0.431-0.027-0.745s-0.033-0.508-0.044-0.581
					c-0.012-0.073-0.047-0.126-0.106-0.161c-0.06-0.033-0.178-0.051-0.355-0.051l-0.574-0.007l-0.062-0.055V8.662l0.055-0.055
					C255.701,8.503,256.434,8.332,257.031,8.095z M256.45,5.039c0.214,0,0.396,0.075,0.547,0.226s0.226,0.333,0.226,0.547
					c0,0.21-0.075,0.39-0.226,0.54s-0.333,0.226-0.547,0.226c-0.21,0-0.391-0.074-0.544-0.222c-0.152-0.148-0.229-0.33-0.229-0.544
					s0.076-0.396,0.229-0.547C256.06,5.115,256.24,5.039,256.45,5.039z"/>
				<path d="M261.044,4.486l0.13,0.082c-0.051,0.524-0.075,1.574-0.075,3.151v3.206c0.155-0.091,0.46-0.32,0.916-0.687
					c0.456-0.367,0.938-0.787,1.446-1.258c0.508-0.473,0.769-0.729,0.782-0.77c0.388,0.014,0.62,0.021,0.697,0.021
					c0.104,0,0.317-0.007,0.636-0.021l0.062,0.062v0.267l-0.055,0.062c-0.228,0.014-0.402,0.043-0.522,0.089
					c-0.121,0.046-0.367,0.196-0.738,0.451c-0.372,0.255-0.811,0.59-1.316,1.005l-0.663,0.54c0.241,0.282,0.664,0.726,1.269,1.33
					c0.604,0.604,1.092,1.071,1.466,1.404s0.618,0.523,0.731,0.57c0.113,0.049,0.234,0.072,0.362,0.072v0.294
					c-0.169,0.032-0.604,0.171-1.306,0.417c-0.475-0.41-0.775-0.682-0.902-0.813l-0.506-0.52l-0.602-0.608
					c-0.188-0.187-0.438-0.424-0.752-0.711l-1.005-0.93v0.813c0,0.101,0.009,0.423,0.027,0.968c0.019,0.544,0.038,0.862,0.058,0.953
					c0.021,0.091,0.052,0.157,0.093,0.198s0.091,0.067,0.15,0.079c0.06,0.011,0.306,0.03,0.738,0.058l0.062,0.055v0.287
					l-0.055,0.062c-0.57-0.036-1.119-0.055-1.647-0.055c-0.524,0-1.071,0.019-1.641,0.055l-0.062-0.062v-0.287l0.062-0.055
					c0.442-0.027,0.691-0.048,0.749-0.062c0.057-0.014,0.106-0.042,0.15-0.086c0.043-0.043,0.072-0.109,0.088-0.197
					c0.017-0.09,0.035-0.383,0.055-0.883c0.021-0.498,0.031-0.876,0.031-1.131V8.362l-0.027-1.449
					c-0.014-0.506-0.028-0.856-0.045-1.053c-0.016-0.196-0.037-0.313-0.064-0.349s-0.075-0.063-0.144-0.082
					s-0.345-0.027-0.827-0.027l-0.062-0.062V5.053l0.055-0.062C259.713,4.891,260.447,4.723,261.044,4.486z"/>
				<path d="M267.791,9.975l-0.267-0.068l-0.055-0.068V8.99c0.812-0.602,1.6-0.902,2.365-0.902c0.524,0,0.96,0.098,1.306,0.294
					s0.598,0.44,0.752,0.735c0.154,0.293,0.232,0.637,0.232,1.028l-0.034,1.374v2.037c0,0.278,0.02,0.446,0.058,0.506
					c0.039,0.06,0.084,0.1,0.134,0.119c0.05,0.021,0.144,0.038,0.28,0.052l0.39,0.034l0.055,0.062v0.273l-0.055,0.055
					c-0.333-0.027-0.643-0.041-0.93-0.041c-0.273,0-0.602,0.014-0.984,0.041l-0.103-0.096l0.027-1.101l-1.49,1.162
					c-0.25,0.104-0.523,0.157-0.82,0.157c-0.365,0-0.678-0.066-0.939-0.198c-0.263-0.132-0.463-0.316-0.602-0.554
					c-0.14-0.237-0.209-0.524-0.209-0.861c0-0.67,0.209-1.192,0.629-1.569c0.42-0.375,1.563-0.695,3.432-0.96
					c0-0.675-0.15-1.149-0.451-1.425c-0.301-0.276-0.704-0.414-1.21-0.414c-0.265,0-0.505,0.039-0.722,0.116
					c-0.216,0.077-0.34,0.14-0.372,0.188c-0.032,0.047-0.155,0.326-0.369,0.837L267.791,9.975z M270.963,11.055
					c-1.275,0.214-2.071,0.444-2.386,0.69s-0.472,0.627-0.472,1.142c0,0.711,0.354,1.066,1.06,1.066
					c0.606,0,1.206-0.351,1.798-1.053V11.055z"/>
				<path d="M273.656,9.243V9.066l0.048-0.068c0.429-0.159,0.774-0.308,1.039-0.444c0-1.189-0.014-1.882-0.041-2.078
					c0.47-0.164,0.854-0.34,1.155-0.526l0.164,0.137c-0.045,0.287-0.1,1.121-0.164,2.502c0.229,0.005,0.475,0.007,0.738,0.007
					c0.537,0,0.923-0.014,1.155-0.041l0.048,0.048l-0.13,0.574l-0.055,0.062c-0.232-0.005-0.489-0.007-0.772-0.007
					c-0.256,0-0.584,0.002-0.984,0.007l-0.041,2.782c0,0.643,0.015,1.063,0.045,1.261c0.029,0.199,0.111,0.354,0.246,0.465
					c0.134,0.112,0.334,0.168,0.598,0.168c0.305,0,0.588-0.08,0.848-0.239l0.164,0.246c-0.109,0.077-0.371,0.306-0.786,0.684
					c-0.237,0.109-0.479,0.164-0.725,0.164c-1.025,0-1.538-0.497-1.538-1.49c0-0.364,0.01-0.675,0.027-0.93
					c0.004-0.077,0.007-0.157,0.007-0.239V9.271h-0.28c-0.205,0-0.439,0.009-0.704,0.027L273.656,9.243z"/>
				<path d="M280.458,8.095l0.13,0.089c-0.051,0.597-0.075,1.355-0.075,2.276v1.545c0,0.101,0.009,0.423,0.027,0.968
					c0.019,0.544,0.038,0.862,0.058,0.953c0.021,0.091,0.052,0.157,0.093,0.198s0.091,0.067,0.15,0.079
					c0.06,0.011,0.306,0.03,0.738,0.058l0.062,0.055v0.287l-0.055,0.062c-0.57-0.036-1.119-0.055-1.647-0.055
					c-0.524,0-1.071,0.019-1.641,0.055l-0.062-0.062v-0.287l0.062-0.055c0.442-0.027,0.691-0.048,0.749-0.062
					c0.057-0.014,0.106-0.042,0.15-0.086c0.043-0.043,0.072-0.109,0.088-0.197c0.017-0.09,0.035-0.383,0.055-0.883
					c0.021-0.498,0.031-0.876,0.031-1.131v-1.347c0-0.183-0.01-0.431-0.027-0.745s-0.033-0.508-0.045-0.581
					c-0.011-0.073-0.047-0.126-0.105-0.161c-0.059-0.033-0.178-0.051-0.355-0.051l-0.574-0.007l-0.062-0.055V8.662l0.055-0.055
					C279.127,8.503,279.861,8.332,280.458,8.095z M279.877,5.039c0.215,0,0.396,0.075,0.547,0.226s0.226,0.333,0.226,0.547
					c0,0.21-0.075,0.39-0.226,0.54s-0.332,0.226-0.547,0.226c-0.209,0-0.391-0.074-0.543-0.222c-0.153-0.148-0.229-0.33-0.229-0.544
					s0.076-0.396,0.229-0.547C279.486,5.115,279.668,5.039,279.877,5.039z"/>
				<path d="M282.447,11.479c0-0.542,0.111-1.065,0.335-1.568c0.224-0.504,0.612-0.939,1.165-1.307
					c0.555-0.366,1.211-0.55,1.973-0.55c0.957,0,1.736,0.302,2.338,0.905c0.602,0.604,0.902,1.38,0.902,2.328
					c0,1.044-0.346,1.902-1.035,2.577c-0.691,0.675-1.523,1.012-2.499,1.012c-0.638,0-1.208-0.172-1.709-0.517
					c-0.501-0.344-0.872-0.764-1.11-1.261C282.566,12.602,282.447,12.062,282.447,11.479z M283.739,11.007
					c0,0.638,0.082,1.209,0.246,1.712c0.164,0.504,0.424,0.908,0.779,1.214s0.761,0.458,1.217,0.458
					c0.538,0,0.981-0.213,1.333-0.639c0.352-0.427,0.526-1.068,0.526-1.925c0-0.971-0.19-1.766-0.571-2.386
					c-0.38-0.62-0.928-0.93-1.644-0.93c-0.593,0-1.056,0.214-1.388,0.643S283.739,10.2,283.739,11.007z"/>
				<path d="M291.963,8.095l0.13,0.089c-0.027,0.306-0.046,0.706-0.055,1.203c0.364-0.301,0.711-0.606,1.039-0.916
					c0.096-0.087,0.186-0.15,0.271-0.191c0.084-0.041,0.225-0.084,0.42-0.13s0.396-0.068,0.602-0.068
					c0.346,0,0.683,0.07,1.008,0.212c0.326,0.142,0.572,0.309,0.738,0.502c0.167,0.194,0.281,0.423,0.346,0.688
					s0.096,0.59,0.096,0.978v1.203c0,0.077,0.012,0.645,0.034,1.702c0.009,0.433,0.058,0.69,0.144,0.772s0.369,0.123,0.848,0.123
					l0.055,0.055v0.294l-0.055,0.055c-0.578-0.036-0.971-0.055-1.176-0.055c-0.119,0-0.451,0.019-0.998,0.055l-0.082-0.075
					c0.059-0.593,0.089-1.365,0.089-2.317v-0.896c0-0.538-0.013-0.925-0.038-1.162c-0.024-0.237-0.102-0.452-0.229-0.646
					c-0.127-0.194-0.299-0.345-0.513-0.451c-0.214-0.107-0.47-0.161-0.766-0.161c-0.237,0-0.44,0.024-0.608,0.071
					c-0.168,0.049-0.357,0.146-0.567,0.295c-0.21,0.147-0.364,0.287-0.465,0.416c-0.101,0.131-0.161,0.251-0.181,0.363
					c-0.021,0.111-0.031,0.35-0.031,0.714v1.189c0,0.101,0.01,0.423,0.027,0.968c0.018,0.544,0.037,0.862,0.059,0.953
					c0.02,0.091,0.051,0.157,0.092,0.198s0.092,0.067,0.15,0.079c0.059,0.011,0.305,0.03,0.738,0.058l0.062,0.055v0.287
					l-0.055,0.062c-0.569-0.036-1.118-0.055-1.647-0.055c-0.523,0-1.07,0.019-1.641,0.055l-0.062-0.062v-0.287l0.062-0.055
					c0.441-0.027,0.691-0.048,0.748-0.062c0.058-0.014,0.107-0.042,0.15-0.086c0.044-0.043,0.073-0.109,0.09-0.197
					c0.016-0.09,0.033-0.383,0.055-0.883c0.02-0.498,0.03-0.876,0.03-1.131v-1.347c0-0.183-0.009-0.431-0.027-0.745
					s-0.033-0.508-0.044-0.581c-0.012-0.073-0.047-0.126-0.106-0.161c-0.06-0.033-0.178-0.051-0.355-0.051l-0.574-0.007
					l-0.062-0.055V8.662l0.055-0.055C290.633,8.503,291.365,8.332,291.963,8.095z"/>
				<path d="M298.464,12.6h0.294l0.062,0.062c0.009,0.383,0.032,0.711,0.068,0.984c0.142,0.214,0.386,0.389,0.731,0.522
					c0.346,0.135,0.688,0.202,1.025,0.202c0.482,0,0.869-0.13,1.158-0.39c0.29-0.26,0.435-0.569,0.435-0.93
					c0-0.196-0.052-0.365-0.157-0.51c-0.105-0.143-0.264-0.262-0.475-0.355c-0.213-0.093-0.592-0.203-1.139-0.331
					c-0.469-0.109-0.797-0.194-0.984-0.257c-0.188-0.061-0.367-0.165-0.54-0.311s-0.306-0.324-0.396-0.537
					c-0.091-0.211-0.137-0.445-0.137-0.7c0-0.61,0.243-1.1,0.728-1.466c0.486-0.367,1.091-0.551,1.815-0.551
					c0.306,0,0.638,0.042,0.998,0.127c0.36,0.084,0.634,0.165,0.82,0.242l0.062,0.096c-0.037,0.183-0.059,0.661-0.068,1.436
					l-0.062,0.062h-0.273l-0.062-0.062c-0.018-0.278-0.043-0.473-0.075-0.584c-0.032-0.112-0.114-0.232-0.246-0.363
					c-0.132-0.129-0.319-0.238-0.561-0.328c-0.241-0.088-0.497-0.133-0.766-0.133c-0.278,0-0.512,0.041-0.7,0.123
					c-0.189,0.082-0.342,0.206-0.459,0.373c-0.115,0.166-0.174,0.367-0.174,0.604c0,0.173,0.035,0.328,0.105,0.465
					c0.071,0.137,0.18,0.247,0.325,0.331c0.146,0.085,0.298,0.146,0.458,0.182l0.745,0.191c0.638,0.155,1.095,0.289,1.37,0.403
					c0.276,0.114,0.489,0.286,0.64,0.517c0.15,0.229,0.226,0.509,0.226,0.837c0,0.629-0.26,1.169-0.779,1.62
					s-1.188,0.677-2.003,0.677c-0.287,0-0.644-0.032-1.069-0.096c-0.427-0.063-0.79-0.135-1.091-0.212l-0.034-0.089l0.068-0.458
					c0.023-0.142,0.037-0.283,0.041-0.428c0.004-0.143,0.01-0.445,0.014-0.905L298.464,12.6z"/>
				<path d="M304.015,11.67v-0.096l0.308-0.916h3.657v0.103l-0.328,0.909H304.015z"/>
			</g>
			<g enable-background="new    ">
				<path d="M127.647,30.14l-0.923-3.063c-0.173-0.574-0.341-1.107-0.502-1.6s-0.269-0.806-0.321-0.94
					c-0.052-0.134-0.108-0.23-0.167-0.29s-0.123-0.101-0.191-0.123s-0.262-0.053-0.581-0.089l-0.048-0.055V23.7l0.062-0.062
					c0.328,0.032,0.836,0.048,1.524,0.048c0.743,0,1.301-0.016,1.675-0.048l0.062,0.062v0.28l-0.048,0.055
					c-0.497,0.005-0.792,0.032-0.885,0.082s-0.14,0.128-0.14,0.232s0.066,0.385,0.198,0.841l0.636,2.201
					c0.1,0.342,0.228,0.74,0.383,1.196c0.123-0.296,0.296-0.692,0.52-1.189l1.005-2.249c0.242-0.533,0.465-1.071,0.67-1.613h0.335
					l0.615,1.654l0.786,1.982l0.608,1.504l0.513-1.347c0.296-0.771,0.526-1.413,0.69-1.928s0.246-0.846,0.246-0.991
					s-0.05-0.241-0.15-0.287s-0.369-0.075-0.807-0.089l-0.062-0.055v-0.287l0.062-0.055c0.529,0.032,0.973,0.048,1.333,0.048
					c0.456,0,0.884-0.016,1.285-0.048l0.055,0.055v0.28l-0.055,0.062c-0.246,0.009-0.414,0.036-0.502,0.082
					s-0.189,0.156-0.301,0.332c-0.112,0.175-0.281,0.531-0.509,1.069l-0.677,1.606l-0.308,0.766l-0.485,1.271
					c-0.15,0.396-0.26,0.723-0.328,0.978h-0.643l-0.328-0.854l-1.559-3.917l-0.656,1.415l-0.759,1.695l-0.67,1.661H127.647z"/>
				<path d="M138.94,23.495l0.13,0.089c-0.05,0.597-0.075,1.355-0.075,2.276v1.545c0,0.101,0.009,0.423,0.027,0.968
					c0.018,0.544,0.038,0.862,0.058,0.953s0.051,0.157,0.092,0.198s0.091,0.067,0.15,0.079c0.059,0.011,0.305,0.03,0.738,0.058
					l0.062,0.055v0.287l-0.055,0.062c-0.57-0.036-1.119-0.055-1.647-0.055c-0.524,0-1.071,0.019-1.641,0.055l-0.062-0.062v-0.287
					l0.062-0.055c0.442-0.027,0.691-0.048,0.749-0.062s0.107-0.042,0.15-0.086c0.043-0.043,0.073-0.109,0.089-0.197
					c0.016-0.09,0.034-0.383,0.055-0.883c0.021-0.498,0.031-0.876,0.031-1.131v-1.347c0-0.183-0.009-0.431-0.027-0.745
					s-0.033-0.508-0.044-0.581s-0.047-0.126-0.106-0.161c-0.059-0.033-0.178-0.051-0.355-0.051l-0.574-0.007l-0.062-0.055v-0.294
					l0.055-0.055C137.61,23.904,138.343,23.733,138.94,23.495z M138.359,20.44c0.214,0,0.396,0.075,0.547,0.226
					s0.226,0.333,0.226,0.547c0,0.21-0.075,0.39-0.226,0.54s-0.333,0.226-0.547,0.226c-0.209,0-0.391-0.074-0.543-0.222
					c-0.153-0.148-0.229-0.33-0.229-0.544s0.076-0.396,0.229-0.547S138.15,20.44,138.359,20.44z"/>
				<path d="M141.155,28h0.294l0.062,0.062c0.009,0.383,0.032,0.711,0.068,0.984c0.141,0.214,0.385,0.389,0.731,0.522
					c0.346,0.135,0.688,0.202,1.025,0.202c0.483,0,0.869-0.13,1.159-0.39s0.434-0.569,0.434-0.93c0-0.196-0.052-0.365-0.157-0.51
					c-0.105-0.143-0.263-0.262-0.475-0.355c-0.212-0.093-0.591-0.203-1.138-0.331c-0.469-0.109-0.797-0.194-0.984-0.257
					c-0.187-0.061-0.367-0.165-0.54-0.311s-0.305-0.324-0.396-0.537c-0.091-0.211-0.137-0.445-0.137-0.7
					c0-0.61,0.243-1.1,0.728-1.466c0.485-0.367,1.09-0.551,1.815-0.551c0.305,0,0.638,0.042,0.998,0.127
					c0.36,0.084,0.633,0.165,0.82,0.242l0.062,0.096c-0.037,0.183-0.059,0.661-0.068,1.436l-0.062,0.062h-0.273l-0.062-0.062
					c-0.018-0.278-0.043-0.473-0.075-0.584c-0.032-0.112-0.114-0.232-0.246-0.363c-0.132-0.129-0.319-0.238-0.561-0.328
					c-0.242-0.088-0.497-0.133-0.766-0.133c-0.278,0-0.512,0.041-0.701,0.123s-0.342,0.206-0.458,0.373
					c-0.116,0.166-0.174,0.367-0.174,0.604c0,0.173,0.035,0.328,0.106,0.465s0.179,0.247,0.325,0.331
					c0.146,0.085,0.298,0.146,0.458,0.182l0.745,0.191c0.638,0.155,1.095,0.289,1.371,0.403s0.489,0.286,0.639,0.517
					c0.15,0.229,0.226,0.509,0.226,0.837c0,0.629-0.26,1.169-0.779,1.62s-1.187,0.677-2.003,0.677c-0.287,0-0.644-0.032-1.07-0.096
					s-0.79-0.135-1.09-0.212l-0.034-0.089l0.068-0.458c0.023-0.142,0.037-0.283,0.041-0.428c0.004-0.143,0.009-0.445,0.014-0.905
					L141.155,28z"/>
				<path d="M147.089,28h0.294l0.062,0.062c0.009,0.383,0.032,0.711,0.068,0.984c0.141,0.214,0.385,0.389,0.731,0.522
					c0.346,0.135,0.688,0.202,1.025,0.202c0.483,0,0.869-0.13,1.159-0.39s0.434-0.569,0.434-0.93c0-0.196-0.052-0.365-0.157-0.51
					c-0.105-0.143-0.263-0.262-0.475-0.355c-0.212-0.093-0.591-0.203-1.138-0.331c-0.469-0.109-0.797-0.194-0.984-0.257
					c-0.187-0.061-0.367-0.165-0.54-0.311s-0.305-0.324-0.396-0.537c-0.091-0.211-0.137-0.445-0.137-0.7
					c0-0.61,0.243-1.1,0.728-1.466c0.485-0.367,1.09-0.551,1.815-0.551c0.305,0,0.638,0.042,0.998,0.127
					c0.36,0.084,0.633,0.165,0.82,0.242l0.062,0.096c-0.037,0.183-0.059,0.661-0.068,1.436l-0.062,0.062h-0.273l-0.062-0.062
					c-0.018-0.278-0.043-0.473-0.075-0.584c-0.032-0.112-0.114-0.232-0.246-0.363c-0.132-0.129-0.319-0.238-0.561-0.328
					c-0.242-0.088-0.497-0.133-0.766-0.133c-0.278,0-0.512,0.041-0.701,0.123s-0.342,0.206-0.458,0.373
					c-0.116,0.166-0.174,0.367-0.174,0.604c0,0.173,0.035,0.328,0.106,0.465s0.179,0.247,0.325,0.331
					c0.146,0.085,0.298,0.146,0.458,0.182l0.745,0.191c0.638,0.155,1.095,0.289,1.371,0.403s0.489,0.286,0.639,0.517
					c0.15,0.229,0.226,0.509,0.226,0.837c0,0.629-0.26,1.169-0.779,1.62s-1.187,0.677-2.003,0.677c-0.287,0-0.644-0.032-1.07-0.096
					s-0.79-0.135-1.09-0.212l-0.034-0.089l0.068-0.458c0.023-0.142,0.037-0.283,0.041-0.428c0.004-0.143,0.009-0.445,0.014-0.905
					L147.089,28z"/>
				<path d="M158.375,29.005l-0.219,0.492c-0.474,0.306-0.896,0.504-1.268,0.595s-0.703,0.137-0.995,0.137
					c-0.547,0-1.065-0.107-1.555-0.321s-0.889-0.576-1.196-1.087s-0.461-1.126-0.461-1.846c0-0.479,0.059-0.91,0.178-1.295
					c0.119-0.386,0.243-0.672,0.373-0.858s0.35-0.395,0.66-0.622s0.638-0.41,0.984-0.547s0.72-0.205,1.121-0.205
					c0.547,0,1.029,0.129,1.446,0.387c0.417,0.257,0.71,0.586,0.878,0.987s0.253,0.827,0.253,1.278c0,0.142-0.007,0.278-0.021,0.41
					l-0.075,0.075c-0.31,0.068-0.727,0.114-1.251,0.137s-0.871,0.034-1.039,0.034h-2.194c0.009,0.943,0.246,1.639,0.711,2.085
					s1.035,0.67,1.709,0.67c0.319,0,0.625-0.055,0.919-0.164s0.605-0.262,0.933-0.458L158.375,29.005z M153.993,26.209
					c0.082,0.014,0.397,0.029,0.947,0.048s0.956,0.027,1.22,0.027c0.633,0,1.019-0.012,1.155-0.034
					c0.004-0.109,0.007-0.193,0.007-0.253c0-0.706-0.144-1.231-0.431-1.575c-0.287-0.345-0.679-0.517-1.176-0.517
					c-0.542,0-0.965,0.193-1.268,0.581S153.993,25.448,153.993,26.209z"/>
				<path d="M161.376,23.495l0.13,0.089c-0.027,0.306-0.045,0.706-0.055,1.203c0.365-0.301,0.711-0.606,1.039-0.916
					c0.096-0.087,0.186-0.15,0.27-0.191s0.225-0.084,0.42-0.13s0.396-0.068,0.602-0.068c0.346,0,0.683,0.07,1.008,0.212
					s0.572,0.309,0.738,0.502c0.167,0.194,0.281,0.423,0.345,0.688s0.096,0.59,0.096,0.978v1.203c0,0.077,0.011,0.645,0.034,1.702
					c0.009,0.433,0.057,0.69,0.144,0.772s0.369,0.123,0.848,0.123l0.055,0.055v0.294l-0.055,0.055
					c-0.579-0.036-0.971-0.055-1.176-0.055c-0.119,0-0.451,0.019-0.998,0.055l-0.082-0.075c0.059-0.593,0.089-1.365,0.089-2.317
					v-0.896c0-0.538-0.013-0.925-0.038-1.162s-0.102-0.452-0.229-0.646c-0.127-0.194-0.298-0.345-0.513-0.451
					c-0.214-0.107-0.469-0.161-0.766-0.161c-0.237,0-0.44,0.024-0.608,0.071c-0.168,0.049-0.358,0.146-0.567,0.295
					c-0.209,0.147-0.365,0.287-0.465,0.416c-0.1,0.131-0.161,0.251-0.181,0.363c-0.021,0.111-0.031,0.35-0.031,0.714v1.189
					c0,0.101,0.009,0.423,0.027,0.968c0.018,0.544,0.038,0.862,0.058,0.953s0.051,0.157,0.092,0.198s0.091,0.067,0.15,0.079
					c0.059,0.011,0.305,0.03,0.738,0.058l0.062,0.055v0.287l-0.055,0.062c-0.57-0.036-1.119-0.055-1.647-0.055
					c-0.524,0-1.071,0.019-1.641,0.055l-0.062-0.062v-0.287l0.062-0.055c0.442-0.027,0.691-0.048,0.749-0.062
					s0.107-0.042,0.15-0.086c0.043-0.043,0.073-0.109,0.089-0.197c0.016-0.09,0.034-0.383,0.055-0.883
					c0.021-0.498,0.031-0.876,0.031-1.131v-1.347c0-0.183-0.009-0.431-0.027-0.745s-0.033-0.508-0.044-0.581
					s-0.047-0.126-0.106-0.161c-0.059-0.033-0.178-0.051-0.355-0.051l-0.574-0.007l-0.062-0.055v-0.294l0.055-0.055
					C160.045,23.904,160.779,23.733,161.376,23.495z"/>
				<path d="M167.877,28h0.294l0.062,0.062c0.009,0.383,0.032,0.711,0.068,0.984c0.141,0.214,0.385,0.389,0.731,0.522
					c0.346,0.135,0.688,0.202,1.025,0.202c0.483,0,0.869-0.13,1.159-0.39s0.434-0.569,0.434-0.93c0-0.196-0.052-0.365-0.157-0.51
					c-0.105-0.143-0.263-0.262-0.475-0.355c-0.212-0.093-0.591-0.203-1.138-0.331c-0.469-0.109-0.797-0.194-0.984-0.257
					c-0.187-0.061-0.367-0.165-0.54-0.311s-0.305-0.324-0.396-0.537c-0.091-0.211-0.137-0.445-0.137-0.7
					c0-0.61,0.243-1.1,0.728-1.466c0.485-0.367,1.09-0.551,1.815-0.551c0.305,0,0.638,0.042,0.998,0.127
					c0.36,0.084,0.633,0.165,0.82,0.242l0.062,0.096c-0.037,0.183-0.059,0.661-0.068,1.436l-0.062,0.062h-0.273l-0.062-0.062
					c-0.018-0.278-0.043-0.473-0.075-0.584c-0.032-0.112-0.114-0.232-0.246-0.363c-0.132-0.129-0.319-0.238-0.561-0.328
					c-0.242-0.088-0.497-0.133-0.766-0.133c-0.278,0-0.512,0.041-0.701,0.123s-0.342,0.206-0.458,0.373
					c-0.116,0.166-0.174,0.367-0.174,0.604c0,0.173,0.035,0.328,0.106,0.465s0.179,0.247,0.325,0.331
					c0.146,0.085,0.298,0.146,0.458,0.182l0.745,0.191c0.638,0.155,1.095,0.289,1.371,0.403s0.489,0.286,0.639,0.517
					c0.15,0.229,0.226,0.509,0.226,0.837c0,0.629-0.26,1.169-0.779,1.62s-1.187,0.677-2.003,0.677c-0.287,0-0.644-0.032-1.07-0.096
					s-0.79-0.135-1.09-0.212l-0.034-0.089l0.068-0.458c0.023-0.142,0.037-0.283,0.041-0.428c0.004-0.143,0.009-0.445,0.014-0.905
					L167.877,28z"/>
				<path d="M179.054,29.279l-0.273,0.458c-0.588,0.323-1.244,0.485-1.969,0.485c-1.002,0-1.777-0.299-2.324-0.896
					s-0.82-1.367-0.82-2.311c0-0.429,0.047-0.811,0.14-1.145c0.093-0.336,0.212-0.612,0.355-0.831s0.302-0.392,0.475-0.52
					s0.466-0.306,0.878-0.533s0.724-0.377,0.933-0.448c0.209-0.07,0.499-0.105,0.868-0.105c0.706,0,1.285,0.135,1.736,0.403
					c-0.087,0.515-0.153,1.089-0.198,1.723l-0.062,0.055h-0.28l-0.062-0.062c-0.019-0.383-0.044-0.641-0.075-0.772
					s-0.213-0.273-0.543-0.424c-0.331-0.15-0.684-0.226-1.057-0.226c-0.374,0-0.707,0.078-0.998,0.236
					c-0.292,0.156-0.512,0.414-0.66,0.771c-0.148,0.358-0.222,0.785-0.222,1.282c0,0.419,0.059,0.828,0.178,1.228
					c0.119,0.398,0.274,0.729,0.468,0.99c0.194,0.263,0.45,0.474,0.769,0.633c0.318,0.159,0.674,0.239,1.066,0.239
					c0.246,0,0.486-0.032,0.721-0.096c0.235-0.063,0.506-0.169,0.811-0.314L179.054,29.279z"/>
				<path d="M181.658,19.886l0.13,0.082c-0.05,0.524-0.075,1.574-0.075,3.151v1.688c0.383-0.314,0.738-0.627,1.066-0.937
					c0.096-0.087,0.188-0.15,0.273-0.191s0.227-0.084,0.42-0.13c0.194-0.046,0.394-0.068,0.599-0.068
					c0.347,0,0.683,0.07,1.009,0.212c0.325,0.142,0.571,0.309,0.738,0.502c0.166,0.194,0.281,0.423,0.345,0.688
					s0.096,0.59,0.096,0.978v1.203c0,0.077,0.011,0.645,0.034,1.702c0.014,0.433,0.063,0.69,0.146,0.772
					c0.085,0.082,0.366,0.123,0.845,0.123l0.055,0.055v0.294l-0.055,0.055c-0.579-0.036-0.971-0.055-1.176-0.055
					c-0.104,0-0.438,0.019-0.998,0.055l-0.082-0.075c0.06-0.593,0.089-1.365,0.089-2.317v-0.896c0-0.538-0.013-0.925-0.037-1.162
					c-0.025-0.237-0.102-0.452-0.229-0.646c-0.128-0.194-0.298-0.345-0.509-0.451c-0.213-0.107-0.469-0.161-0.77-0.161
					c-0.311,0-0.568,0.042-0.775,0.126c-0.208,0.085-0.418,0.228-0.633,0.428s-0.343,0.368-0.387,0.502
					c-0.043,0.135-0.064,0.394-0.064,0.776v1.217c0,0.101,0.01,0.423,0.027,0.968c0.018,0.544,0.037,0.862,0.059,0.953
					c0.02,0.091,0.051,0.157,0.092,0.198s0.092,0.067,0.15,0.079c0.059,0.011,0.305,0.03,0.738,0.058l0.062,0.055v0.287
					l-0.055,0.062c-0.569-0.036-1.118-0.055-1.647-0.055c-0.523,0-1.07,0.019-1.641,0.055l-0.062-0.062v-0.287l0.062-0.055
					c0.441-0.027,0.691-0.048,0.748-0.062c0.058-0.014,0.107-0.042,0.15-0.086c0.044-0.043,0.073-0.109,0.09-0.197
					c0.016-0.09,0.033-0.383,0.055-0.883c0.02-0.498,0.03-0.876,0.03-1.131v-3.541l-0.027-1.449
					c-0.014-0.506-0.028-0.856-0.044-1.053c-0.017-0.196-0.038-0.313-0.065-0.349s-0.075-0.063-0.144-0.082
					s-0.344-0.027-0.827-0.027l-0.062-0.062v-0.287l0.055-0.062C180.328,20.291,181.061,20.123,181.658,19.886z"/>
				<path d="M188.932,25.375l-0.267-0.068l-0.055-0.068v-0.848c0.812-0.602,1.6-0.902,2.365-0.902c0.524,0,0.96,0.098,1.306,0.294
					s0.598,0.44,0.752,0.735c0.154,0.293,0.232,0.637,0.232,1.028l-0.034,1.374v2.037c0,0.278,0.02,0.446,0.058,0.506
					c0.039,0.06,0.084,0.1,0.134,0.119c0.05,0.021,0.144,0.038,0.28,0.052l0.39,0.034l0.055,0.062v0.273l-0.055,0.055
					c-0.333-0.027-0.643-0.041-0.93-0.041c-0.273,0-0.602,0.014-0.984,0.041l-0.103-0.096l0.027-1.101l-1.49,1.162
					c-0.25,0.104-0.523,0.157-0.82,0.157c-0.365,0-0.678-0.066-0.939-0.198c-0.263-0.132-0.463-0.316-0.602-0.554
					c-0.14-0.237-0.209-0.524-0.209-0.861c0-0.67,0.209-1.192,0.629-1.569c0.42-0.375,1.563-0.695,3.432-0.96
					c0-0.675-0.15-1.149-0.451-1.425c-0.301-0.276-0.704-0.414-1.21-0.414c-0.265,0-0.505,0.039-0.722,0.116
					c-0.216,0.077-0.34,0.14-0.372,0.188c-0.032,0.047-0.155,0.326-0.369,0.837L188.932,25.375z M192.104,26.455
					c-1.275,0.214-2.071,0.444-2.386,0.69s-0.472,0.627-0.472,1.142c0,0.711,0.354,1.066,1.06,1.066
					c0.606,0,1.206-0.351,1.798-1.053V26.455z"/>
				<path d="M198.42,29.661l0.055,0.055v0.287l-0.055,0.062c-0.141,0-0.408-0.009-0.8-0.027c-0.355-0.019-0.722-0.027-1.101-0.027
					c-0.492,0-1.041,0.019-1.647,0.055l-0.055-0.062v-0.287l0.055-0.055c0.442-0.027,0.692-0.048,0.752-0.062
					s0.109-0.042,0.15-0.086c0.041-0.043,0.069-0.109,0.085-0.197c0.017-0.09,0.035-0.383,0.055-0.883
					c0.021-0.498,0.031-0.876,0.031-1.131v-2.639l-0.882,0.048l-0.062-0.055v-0.171l0.048-0.068l0.896-0.458v-0.41
					c0-0.456,0.021-0.801,0.062-1.036c0.041-0.234,0.117-0.451,0.229-0.648c0.111-0.199,0.307-0.449,0.584-0.752
					c0.277-0.304,0.521-0.552,0.731-0.746c0.21-0.193,0.392-0.323,0.547-0.389c0.155-0.066,0.337-0.1,0.547-0.1
					c0.173,0,0.36,0.034,0.561,0.103l-0.007,1.121l-0.157,0.062c-0.255-0.228-0.552-0.342-0.889-0.342
					c-0.237,0-0.442,0.049-0.615,0.146c-0.173,0.099-0.292,0.258-0.355,0.479c-0.063,0.222-0.096,0.587-0.096,1.098v1.415h0.731
					c0.379,0,0.736-0.014,1.073-0.041l0.062,0.075l-0.123,0.602l-0.062,0.068c-0.137-0.005-0.226-0.007-0.267-0.007l-0.889-0.007
					h-0.526v2.755c0,0.146,0.011,0.479,0.03,1.001c0.021,0.522,0.041,0.829,0.059,0.92s0.049,0.157,0.092,0.198
					c0.044,0.041,0.114,0.07,0.213,0.089C197.578,29.632,197.891,29.648,198.42,29.661z"/>
				<path d="M199.459,24.644v-0.178l0.048-0.068c0.429-0.159,0.774-0.308,1.039-0.444c0-1.189-0.014-1.882-0.041-2.078
					c0.47-0.164,0.854-0.34,1.155-0.526l0.164,0.137c-0.045,0.287-0.1,1.121-0.164,2.502c0.229,0.005,0.475,0.007,0.738,0.007
					c0.537,0,0.923-0.014,1.155-0.041l0.048,0.048l-0.13,0.574l-0.055,0.062c-0.232-0.005-0.489-0.007-0.772-0.007
					c-0.256,0-0.584,0.002-0.984,0.007l-0.041,2.782c0,0.643,0.015,1.063,0.045,1.261c0.029,0.199,0.111,0.354,0.246,0.465
					c0.134,0.112,0.334,0.168,0.598,0.168c0.305,0,0.588-0.08,0.848-0.239l0.164,0.246c-0.109,0.077-0.371,0.306-0.786,0.684
					c-0.237,0.109-0.479,0.164-0.725,0.164c-1.025,0-1.538-0.497-1.538-1.49c0-0.364,0.01-0.675,0.027-0.93
					c0.004-0.077,0.007-0.157,0.007-0.239v-2.837h-0.28c-0.205,0-0.439,0.009-0.704,0.027L199.459,24.644z"/>
				<path d="M209.576,23.495l0.13,0.089c-0.05,0.597-0.075,1.355-0.075,2.276v1.593c0,0.583,0.045,0.989,0.133,1.217
					c0.09,0.228,0.243,0.402,0.462,0.523c0.219,0.12,0.479,0.181,0.779,0.181c0.333,0,0.636-0.065,0.909-0.194
					c0.273-0.131,0.502-0.313,0.688-0.551c0.184-0.237,0.29-0.396,0.317-0.479s0.046-0.313,0.055-0.69l0.021-0.766v-0.738
					c0-0.183-0.01-0.431-0.027-0.745s-0.033-0.508-0.045-0.581c-0.011-0.073-0.047-0.126-0.105-0.161
					c-0.059-0.033-0.178-0.051-0.355-0.051l-0.574-0.007l-0.062-0.055v-0.294l0.055-0.055c0.87-0.104,1.604-0.275,2.201-0.513
					l0.13,0.089c-0.051,0.597-0.075,1.355-0.075,2.276v1.203c0,0.068,0.011,0.627,0.034,1.675c0.01,0.388,0.033,0.623,0.072,0.707
					c0.038,0.085,0.092,0.145,0.16,0.178c0.068,0.035,0.271,0.052,0.608,0.052h0.191l0.062,0.055v0.273l-0.055,0.062
					c-0.643-0.036-1.073-0.055-1.292-0.055c-0.278,0-0.599,0.016-0.964,0.048l-0.062-0.055c0.027-0.465,0.048-0.859,0.062-1.183
					c-0.287,0.224-0.615,0.521-0.984,0.896c-0.141,0.142-0.344,0.26-0.608,0.355s-0.565,0.144-0.902,0.144
					c-0.511,0-0.908-0.081-1.192-0.242c-0.285-0.162-0.486-0.386-0.605-0.67c-0.119-0.285-0.178-0.776-0.178-1.474l0.007-0.54
					v-1.333c0-0.183-0.009-0.431-0.027-0.745s-0.033-0.508-0.044-0.581c-0.012-0.073-0.047-0.126-0.106-0.161
					c-0.06-0.033-0.178-0.051-0.355-0.051l-0.574-0.007l-0.062-0.055v-0.294l0.055-0.055
					C208.246,23.904,208.979,23.733,209.576,23.495z"/>
				<path d="M217.991,23.495l0.13,0.089c-0.027,0.306-0.045,0.706-0.055,1.203c0.365-0.301,0.711-0.606,1.039-0.916
					c0.096-0.087,0.186-0.15,0.27-0.191c0.085-0.041,0.225-0.084,0.421-0.13s0.396-0.068,0.602-0.068
					c0.347,0,0.683,0.07,1.009,0.212c0.325,0.142,0.571,0.309,0.738,0.502c0.166,0.194,0.281,0.423,0.345,0.688
					s0.096,0.59,0.096,0.978v1.203c0,0.077,0.011,0.645,0.034,1.702c0.01,0.433,0.057,0.69,0.144,0.772s0.369,0.123,0.848,0.123
					l0.055,0.055v0.294l-0.055,0.055c-0.579-0.036-0.971-0.055-1.176-0.055c-0.118,0-0.451,0.019-0.998,0.055l-0.082-0.075
					c0.06-0.593,0.089-1.365,0.089-2.317v-0.896c0-0.538-0.013-0.925-0.037-1.162c-0.025-0.237-0.102-0.452-0.229-0.646
					c-0.128-0.194-0.298-0.345-0.513-0.451c-0.215-0.107-0.469-0.161-0.766-0.161c-0.236,0-0.439,0.024-0.608,0.071
					c-0.169,0.049-0.358,0.146-0.567,0.295c-0.209,0.147-0.365,0.287-0.465,0.416c-0.1,0.131-0.16,0.251-0.182,0.363
					c-0.02,0.111-0.03,0.35-0.03,0.714v1.189c0,0.101,0.009,0.423,0.027,0.968c0.019,0.544,0.038,0.862,0.058,0.953
					c0.021,0.091,0.052,0.157,0.093,0.198s0.091,0.067,0.15,0.079c0.06,0.011,0.306,0.03,0.738,0.058l0.062,0.055v0.287
					l-0.055,0.062c-0.57-0.036-1.119-0.055-1.647-0.055c-0.524,0-1.071,0.019-1.641,0.055l-0.062-0.062v-0.287l0.062-0.055
					c0.442-0.027,0.691-0.048,0.749-0.062c0.057-0.014,0.106-0.042,0.15-0.086c0.043-0.043,0.072-0.109,0.088-0.197
					c0.017-0.09,0.035-0.383,0.055-0.883c0.021-0.498,0.031-0.876,0.031-1.131v-1.347c0-0.183-0.01-0.431-0.027-0.745
					s-0.033-0.508-0.045-0.581c-0.011-0.073-0.047-0.126-0.105-0.161c-0.059-0.033-0.178-0.051-0.355-0.051l-0.574-0.007
					l-0.062-0.055v-0.294l0.055-0.055C216.66,23.904,217.395,23.733,217.991,23.495z"/>
				<path d="M228.402,20.74v-0.287l0.055-0.062c0.871-0.101,1.604-0.269,2.201-0.506l0.13,0.082
					c-0.05,0.524-0.075,1.574-0.075,3.151v4.478c0,0.46,0.008,0.862,0.023,1.206c0.017,0.345,0.045,0.549,0.086,0.612
					s0.108,0.116,0.201,0.157c0.094,0.041,0.359,0.08,0.797,0.116l0.062,0.055v0.26l-0.062,0.062
					c-0.492-0.032-0.875-0.048-1.148-0.048c-0.246,0-0.598,0.016-1.053,0.048l-0.075-0.075c0.014-0.446,0.021-0.759,0.021-0.937
					c0-0.022,0.002-0.109,0.007-0.26c-0.251,0.183-0.501,0.385-0.752,0.608c-0.369,0.328-0.61,0.533-0.725,0.615
					c-0.21,0.104-0.509,0.157-0.896,0.157c-0.629,0-1.163-0.155-1.604-0.465c-0.439-0.31-0.752-0.705-0.939-1.186
					c-0.188-0.481-0.28-0.975-0.28-1.48c0-0.515,0.097-1.011,0.29-1.486c0.194-0.477,0.47-0.824,0.828-1.043
					c0.357-0.219,0.747-0.445,1.168-0.68c0.422-0.235,0.84-0.353,1.255-0.353c0.579,0,1.13,0.144,1.654,0.431l-0.027-1.524
					c-0.009-0.528-0.022-0.896-0.041-1.104c-0.019-0.207-0.041-0.33-0.068-0.369c-0.027-0.038-0.074-0.066-0.14-0.085
					c-0.066-0.019-0.344-0.027-0.831-0.027L228.402,20.74z M229.571,25.081c-0.282-0.319-0.596-0.563-0.94-0.731
					c-0.344-0.169-0.689-0.253-1.035-0.253c-0.383,0-0.739,0.104-1.07,0.312c-0.33,0.207-0.568,0.515-0.714,0.922
					c-0.146,0.408-0.219,0.852-0.219,1.33c0,0.798,0.202,1.438,0.604,1.921c0.404,0.483,0.91,0.725,1.521,0.725
					c0.332,0,0.628-0.076,0.885-0.229c0.258-0.152,0.47-0.358,0.637-0.618c0.166-0.26,0.263-0.52,0.29-0.779
					s0.041-0.736,0.041-1.429V25.081z"/>
				<path d="M248.712,20.371l0.062,0.055v0.335l-0.055,0.048c-0.502,0.014-0.813,0.039-0.934,0.075
					c-0.12,0.036-0.205,0.097-0.256,0.181c-0.051,0.085-0.078,0.25-0.086,0.496c-0.006,0.246-0.02,0.941-0.037,2.085v3.151
					c0,0.456,0.007,0.971,0.021,1.545s0.042,0.908,0.085,1.002c0.044,0.093,0.123,0.161,0.236,0.205
					c0.113,0.043,0.438,0.071,0.971,0.085l0.055,0.048v0.335l-0.062,0.055c-0.743-0.041-1.39-0.062-1.941-0.062
					c-0.374,0-1.009,0.021-1.907,0.062l-0.062-0.055v-0.328l0.055-0.055c0.501-0.014,0.813-0.039,0.933-0.075
					c0.121-0.036,0.207-0.097,0.257-0.182c0.05-0.084,0.079-0.251,0.089-0.502s0.021-0.943,0.034-2.078V21.78l-2.358,4.936
					c-0.592,1.235-1.109,2.397-1.552,3.486h-0.267c-0.256-0.588-0.465-1.058-0.629-1.408l-3.268-6.788v4.778
					c0,0.446,0.006,0.961,0.018,1.541c0.011,0.582,0.039,0.918,0.085,1.009s0.126,0.159,0.239,0.205s0.438,0.073,0.971,0.082
					l0.055,0.055v0.328l-0.062,0.062l-0.438-0.021c-0.451-0.022-0.839-0.034-1.162-0.034c-0.146,0-0.69,0.019-1.634,0.055
					l-0.055-0.055v-0.328l0.055-0.062c0.502-0.009,0.811-0.032,0.93-0.068s0.204-0.098,0.256-0.185
					c0.053-0.087,0.082-0.248,0.09-0.485c0.006-0.237,0.017-0.937,0.03-2.099v-3.131c0-0.415-0.006-0.92-0.017-1.514
					c-0.012-0.596-0.039-0.939-0.082-1.033c-0.044-0.093-0.123-0.162-0.236-0.208s-0.438-0.073-0.971-0.082l-0.055-0.055v-0.328
					l0.062-0.062c0.314,0.022,0.738,0.034,1.271,0.034c0.501,0,0.938-0.012,1.313-0.034c0.383,0.884,0.749,1.684,1.101,2.399
					l2.591,5.318l2.338-4.874c0.634-1.317,1.06-2.265,1.278-2.844c0.438,0.022,0.868,0.034,1.292,0.034
					C247.741,20.406,248.192,20.394,248.712,20.371z"/>
				<path d="M255.138,29.005l-0.219,0.492c-0.474,0.306-0.896,0.504-1.269,0.595c-0.371,0.091-0.703,0.137-0.994,0.137
					c-0.547,0-1.065-0.107-1.555-0.321c-0.49-0.214-0.889-0.576-1.197-1.087c-0.307-0.511-0.461-1.126-0.461-1.846
					c0-0.479,0.059-0.91,0.178-1.295c0.119-0.386,0.242-0.672,0.373-0.858c0.129-0.187,0.35-0.395,0.659-0.622
					s0.638-0.41,0.984-0.547s0.72-0.205,1.121-0.205c0.547,0,1.028,0.129,1.446,0.387c0.416,0.257,0.709,0.586,0.878,0.987
					s0.253,0.827,0.253,1.278c0,0.142-0.007,0.278-0.021,0.41l-0.075,0.075c-0.311,0.068-0.727,0.114-1.251,0.137
					s-0.87,0.034-1.039,0.034h-2.194c0.01,0.943,0.246,1.639,0.711,2.085s1.035,0.67,1.709,0.67c0.318,0,0.625-0.055,0.92-0.164
					c0.293-0.109,0.604-0.262,0.933-0.458L255.138,29.005z M250.756,26.209c0.082,0.014,0.397,0.029,0.947,0.048
					c0.549,0.019,0.955,0.027,1.22,0.027c0.634,0,1.019-0.012,1.155-0.034c0.004-0.109,0.007-0.193,0.007-0.253
					c0-0.706-0.144-1.231-0.431-1.575c-0.287-0.345-0.68-0.517-1.176-0.517c-0.543,0-0.965,0.193-1.268,0.581
					C250.907,24.874,250.756,25.448,250.756,26.209z"/>
				<path d="M260.401,20.74v-0.287l0.055-0.062c0.87-0.101,1.604-0.269,2.201-0.506l0.13,0.082
					c-0.051,0.524-0.075,1.574-0.075,3.151v4.478c0,0.46,0.008,0.862,0.024,1.206c0.016,0.345,0.044,0.549,0.085,0.612
					s0.108,0.116,0.202,0.157c0.093,0.041,0.358,0.08,0.796,0.116l0.062,0.055v0.26l-0.062,0.062
					c-0.492-0.032-0.875-0.048-1.148-0.048c-0.246,0-0.597,0.016-1.053,0.048l-0.075-0.075c0.014-0.446,0.021-0.759,0.021-0.937
					c0-0.022,0.003-0.109,0.007-0.26c-0.25,0.183-0.502,0.385-0.752,0.608c-0.369,0.328-0.611,0.533-0.725,0.615
					c-0.209,0.104-0.508,0.157-0.896,0.157c-0.629,0-1.163-0.155-1.603-0.465c-0.44-0.31-0.754-0.705-0.94-1.186
					c-0.187-0.481-0.28-0.975-0.28-1.48c0-0.515,0.097-1.011,0.291-1.486c0.193-0.477,0.469-0.824,0.826-1.043
					c0.358-0.219,0.748-0.445,1.17-0.68c0.421-0.235,0.84-0.353,1.254-0.353c0.578,0,1.131,0.144,1.654,0.431l-0.027-1.524
					c-0.01-0.528-0.023-0.896-0.041-1.104c-0.018-0.207-0.041-0.33-0.068-0.369c-0.027-0.038-0.074-0.066-0.141-0.085
					c-0.065-0.019-0.342-0.027-0.83-0.027L260.401,20.74z M261.57,25.081c-0.283-0.319-0.596-0.563-0.939-0.731
					c-0.345-0.169-0.689-0.253-1.036-0.253c-0.383,0-0.739,0.104-1.069,0.312c-0.331,0.207-0.568,0.515-0.715,0.922
					c-0.146,0.408-0.219,0.852-0.219,1.33c0,0.798,0.201,1.438,0.605,1.921c0.402,0.483,0.91,0.725,1.521,0.725
					c0.333,0,0.628-0.076,0.886-0.229c0.257-0.152,0.469-0.358,0.635-0.618c0.167-0.26,0.264-0.52,0.291-0.779
					s0.041-0.736,0.041-1.429V25.081z"/>
				<path d="M266.902,23.495l0.13,0.089c-0.05,0.597-0.075,1.355-0.075,2.276v1.545c0,0.101,0.01,0.423,0.027,0.968
					c0.018,0.544,0.037,0.862,0.059,0.953c0.02,0.091,0.051,0.157,0.092,0.198s0.092,0.067,0.15,0.079
					c0.059,0.011,0.305,0.03,0.738,0.058l0.062,0.055v0.287l-0.055,0.062c-0.569-0.036-1.118-0.055-1.647-0.055
					c-0.523,0-1.07,0.019-1.641,0.055l-0.062-0.062v-0.287l0.062-0.055c0.441-0.027,0.691-0.048,0.748-0.062
					c0.058-0.014,0.107-0.042,0.15-0.086c0.044-0.043,0.073-0.109,0.09-0.197c0.016-0.09,0.033-0.383,0.055-0.883
					c0.02-0.498,0.03-0.876,0.03-1.131v-1.347c0-0.183-0.009-0.431-0.027-0.745s-0.033-0.508-0.044-0.581
					c-0.012-0.073-0.047-0.126-0.106-0.161c-0.06-0.033-0.178-0.051-0.355-0.051l-0.574-0.007l-0.062-0.055v-0.294l0.055-0.055
					C265.572,23.904,266.305,23.733,266.902,23.495z M266.321,20.44c0.214,0,0.396,0.075,0.547,0.226s0.226,0.333,0.226,0.547
					c0,0.21-0.075,0.39-0.226,0.54s-0.333,0.226-0.547,0.226c-0.21,0-0.391-0.074-0.544-0.222c-0.152-0.148-0.229-0.33-0.229-0.544
					s0.076-0.396,0.229-0.547C265.931,20.515,266.111,20.44,266.321,20.44z"/>
				<path d="M274.47,29.005l-0.219,0.492c-0.474,0.306-0.896,0.504-1.269,0.595c-0.371,0.091-0.703,0.137-0.994,0.137
					c-0.547,0-1.065-0.107-1.555-0.321c-0.49-0.214-0.889-0.576-1.197-1.087c-0.307-0.511-0.461-1.126-0.461-1.846
					c0-0.479,0.059-0.91,0.178-1.295c0.119-0.386,0.242-0.672,0.373-0.858c0.129-0.187,0.35-0.395,0.659-0.622
					s0.638-0.41,0.984-0.547s0.72-0.205,1.121-0.205c0.547,0,1.028,0.129,1.446,0.387c0.416,0.257,0.709,0.586,0.878,0.987
					s0.253,0.827,0.253,1.278c0,0.142-0.007,0.278-0.021,0.41l-0.075,0.075c-0.311,0.068-0.727,0.114-1.251,0.137
					s-0.87,0.034-1.039,0.034h-2.194c0.01,0.943,0.246,1.639,0.711,2.085s1.035,0.67,1.709,0.67c0.318,0,0.625-0.055,0.92-0.164
					c0.293-0.109,0.604-0.262,0.933-0.458L274.47,29.005z M270.088,26.209c0.082,0.014,0.397,0.029,0.947,0.048
					c0.549,0.019,0.955,0.027,1.22,0.027c0.634,0,1.019-0.012,1.155-0.034c0.004-0.109,0.007-0.193,0.007-0.253
					c0-0.706-0.144-1.231-0.431-1.575c-0.287-0.345-0.68-0.517-1.176-0.517c-0.543,0-0.965,0.193-1.268,0.581
					C270.239,24.874,270.088,25.448,270.088,26.209z"/>
				<path d="M277.471,23.495l0.13,0.089c-0.027,0.306-0.046,0.706-0.055,1.203c0.364-0.301,0.711-0.606,1.039-0.916
					c0.096-0.087,0.186-0.15,0.271-0.191c0.084-0.041,0.225-0.084,0.42-0.13s0.396-0.068,0.602-0.068
					c0.346,0,0.683,0.07,1.008,0.212c0.326,0.142,0.572,0.309,0.738,0.502c0.167,0.194,0.281,0.423,0.346,0.688
					s0.096,0.59,0.096,0.978v1.203c0,0.077,0.012,0.645,0.034,1.702c0.009,0.433,0.058,0.69,0.144,0.772s0.369,0.123,0.848,0.123
					l0.055,0.055v0.294l-0.055,0.055c-0.578-0.036-0.971-0.055-1.176-0.055c-0.119,0-0.451,0.019-0.998,0.055l-0.082-0.075
					c0.059-0.593,0.089-1.365,0.089-2.317v-0.896c0-0.538-0.013-0.925-0.038-1.162c-0.024-0.237-0.102-0.452-0.229-0.646
					c-0.127-0.194-0.299-0.345-0.513-0.451c-0.214-0.107-0.47-0.161-0.766-0.161c-0.237,0-0.44,0.024-0.608,0.071
					c-0.168,0.049-0.357,0.146-0.567,0.295c-0.21,0.147-0.364,0.287-0.465,0.416c-0.101,0.131-0.161,0.251-0.181,0.363
					c-0.021,0.111-0.031,0.35-0.031,0.714v1.189c0,0.101,0.01,0.423,0.027,0.968c0.018,0.544,0.037,0.862,0.059,0.953
					c0.02,0.091,0.051,0.157,0.092,0.198s0.092,0.067,0.15,0.079c0.059,0.011,0.305,0.03,0.738,0.058l0.062,0.055v0.287
					l-0.055,0.062c-0.569-0.036-1.118-0.055-1.647-0.055c-0.523,0-1.07,0.019-1.641,0.055l-0.062-0.062v-0.287l0.062-0.055
					c0.441-0.027,0.691-0.048,0.748-0.062c0.058-0.014,0.107-0.042,0.15-0.086c0.044-0.043,0.073-0.109,0.09-0.197
					c0.016-0.09,0.033-0.383,0.055-0.883c0.02-0.498,0.03-0.876,0.03-1.131v-1.347c0-0.183-0.009-0.431-0.027-0.745
					s-0.033-0.508-0.044-0.581c-0.012-0.073-0.047-0.126-0.106-0.161c-0.06-0.033-0.178-0.051-0.355-0.051l-0.574-0.007
					l-0.062-0.055v-0.294l0.055-0.055C276.141,23.904,276.873,23.733,277.471,23.495z"/>
				<path d="M287.219,29.661l0.055,0.055v0.287l-0.055,0.062c-0.141,0-0.408-0.009-0.8-0.027c-0.355-0.019-0.722-0.027-1.101-0.027
					c-0.492,0-1.041,0.019-1.647,0.055l-0.055-0.062v-0.287l0.055-0.055c0.442-0.027,0.692-0.048,0.752-0.062
					s0.109-0.042,0.15-0.086c0.041-0.043,0.069-0.109,0.085-0.197c0.017-0.09,0.035-0.383,0.055-0.883
					c0.021-0.498,0.031-0.876,0.031-1.131v-2.639l-0.882,0.048l-0.062-0.055v-0.171l0.048-0.068l0.896-0.458v-0.41
					c0-0.456,0.021-0.801,0.062-1.036c0.041-0.234,0.117-0.451,0.229-0.648c0.111-0.199,0.307-0.449,0.584-0.752
					c0.277-0.304,0.521-0.552,0.731-0.746c0.21-0.193,0.392-0.323,0.547-0.389c0.155-0.066,0.337-0.1,0.547-0.1
					c0.173,0,0.36,0.034,0.561,0.103l-0.007,1.121l-0.157,0.062c-0.255-0.228-0.552-0.342-0.889-0.342
					c-0.237,0-0.442,0.049-0.615,0.146c-0.173,0.099-0.292,0.258-0.355,0.479c-0.063,0.222-0.096,0.587-0.096,1.098v1.415h0.731
					c0.379,0,0.736-0.014,1.073-0.041l0.062,0.075l-0.123,0.602l-0.062,0.068c-0.137-0.005-0.226-0.007-0.267-0.007l-0.889-0.007
					h-0.526v2.755c0,0.146,0.011,0.479,0.03,1.001c0.021,0.522,0.041,0.829,0.059,0.92s0.049,0.157,0.092,0.198
					c0.044,0.041,0.114,0.07,0.213,0.089C286.377,29.632,286.689,29.648,287.219,29.661z"/>
				<path d="M288.408,26.879c0-0.542,0.111-1.065,0.335-1.568c0.224-0.504,0.612-0.939,1.165-1.307
					c0.555-0.366,1.211-0.55,1.973-0.55c0.957,0,1.736,0.302,2.338,0.905c0.602,0.604,0.902,1.38,0.902,2.328
					c0,1.044-0.346,1.902-1.035,2.577c-0.691,0.675-1.523,1.012-2.499,1.012c-0.638,0-1.208-0.172-1.709-0.517
					c-0.501-0.344-0.872-0.764-1.11-1.261C288.527,28.002,288.408,27.462,288.408,26.879z M289.7,26.407
					c0,0.638,0.082,1.209,0.246,1.712c0.164,0.504,0.424,0.908,0.779,1.214s0.761,0.458,1.217,0.458
					c0.538,0,0.981-0.213,1.333-0.639c0.352-0.427,0.526-1.068,0.526-1.925c0-0.971-0.19-1.766-0.571-2.386
					c-0.38-0.62-0.928-0.93-1.644-0.93c-0.593,0-1.056,0.214-1.388,0.643S289.7,25.601,289.7,26.407z"/>
				<path d="M298.211,23.495l0.13,0.089c-0.027,0.265-0.048,0.733-0.062,1.408l0.513-0.649c0.169-0.214,0.317-0.38,0.448-0.495
					c0.129-0.117,0.281-0.207,0.454-0.271s0.351-0.096,0.533-0.096c0.2,0,0.39,0.041,0.567,0.123l0.048,0.096
					c-0.073,0.606-0.114,1.14-0.123,1.6h-0.308c-0.182-0.419-0.477-0.629-0.882-0.629c-0.282,0-0.528,0.09-0.738,0.271
					c-0.21,0.18-0.35,0.405-0.421,0.676c-0.07,0.271-0.105,0.614-0.105,1.029v0.759c0,0.137,0.01,0.472,0.027,1.005
					s0.037,0.841,0.059,0.923c0.02,0.082,0.052,0.143,0.096,0.181c0.043,0.039,0.1,0.065,0.17,0.079
					c0.071,0.014,0.396,0.036,0.975,0.068l0.062,0.055v0.287l-0.062,0.062c-0.605-0.036-1.24-0.055-1.9-0.055
					c-0.523,0-1.07,0.019-1.641,0.055l-0.062-0.062v-0.287l0.062-0.055c0.441-0.027,0.691-0.048,0.748-0.062
					c0.058-0.014,0.107-0.042,0.15-0.086c0.044-0.043,0.073-0.109,0.09-0.197c0.016-0.09,0.033-0.383,0.055-0.883
					c0.02-0.498,0.03-0.876,0.03-1.131v-1.347c0-0.183-0.009-0.431-0.027-0.745s-0.033-0.508-0.044-0.581
					c-0.012-0.073-0.047-0.126-0.106-0.161c-0.06-0.033-0.178-0.051-0.355-0.051l-0.574-0.007l-0.062-0.055v-0.294l0.055-0.055
					C296.881,23.904,297.613,23.733,298.211,23.495z"/>
				<path d="M301.807,28h0.294l0.062,0.062c0.01,0.383,0.031,0.711,0.068,0.984c0.141,0.214,0.385,0.389,0.731,0.522
					c0.347,0.135,0.688,0.202,1.025,0.202c0.483,0,0.869-0.13,1.159-0.39c0.289-0.26,0.434-0.569,0.434-0.93
					c0-0.196-0.053-0.365-0.157-0.51c-0.104-0.143-0.263-0.262-0.476-0.355c-0.211-0.093-0.591-0.203-1.138-0.331
					c-0.47-0.109-0.798-0.194-0.984-0.257c-0.187-0.061-0.366-0.165-0.54-0.311s-0.305-0.324-0.396-0.537
					c-0.092-0.211-0.137-0.445-0.137-0.7c0-0.61,0.242-1.1,0.729-1.466c0.484-0.367,1.09-0.551,1.814-0.551
					c0.305,0,0.639,0.042,0.998,0.127c0.359,0.084,0.633,0.165,0.82,0.242l0.062,0.096c-0.036,0.183-0.06,0.661-0.068,1.436
					l-0.062,0.062h-0.273l-0.062-0.062c-0.019-0.278-0.044-0.473-0.075-0.584c-0.031-0.112-0.113-0.232-0.246-0.363
					c-0.133-0.129-0.318-0.238-0.561-0.328c-0.242-0.088-0.496-0.133-0.766-0.133c-0.277,0-0.512,0.041-0.701,0.123
					c-0.188,0.082-0.342,0.206-0.457,0.373c-0.117,0.166-0.175,0.367-0.175,0.604c0,0.173,0.035,0.328,0.106,0.465
					c0.07,0.137,0.178,0.247,0.324,0.331c0.146,0.085,0.299,0.146,0.458,0.182l0.745,0.191c0.639,0.155,1.095,0.289,1.371,0.403
					c0.275,0.114,0.488,0.286,0.639,0.517c0.15,0.229,0.226,0.509,0.226,0.837c0,0.629-0.26,1.169-0.779,1.62
					s-1.187,0.677-2.003,0.677c-0.287,0-0.644-0.032-1.07-0.096c-0.426-0.063-0.789-0.135-1.09-0.212l-0.034-0.089l0.068-0.458
					c0.022-0.142,0.036-0.283,0.041-0.428c0.005-0.143,0.009-0.445,0.014-0.905L301.807,28z"/>
				<path d="M312.983,29.279l-0.273,0.458c-0.588,0.323-1.244,0.485-1.969,0.485c-1.003,0-1.777-0.299-2.324-0.896
					s-0.82-1.367-0.82-2.311c0-0.429,0.047-0.811,0.14-1.145c0.094-0.336,0.213-0.612,0.355-0.831
					c0.145-0.219,0.303-0.392,0.476-0.52s0.466-0.306,0.878-0.533c0.413-0.228,0.725-0.377,0.934-0.448
					c0.209-0.07,0.499-0.105,0.868-0.105c0.706,0,1.285,0.135,1.736,0.403c-0.087,0.515-0.153,1.089-0.198,1.723l-0.062,0.055h-0.28
					l-0.062-0.062c-0.019-0.383-0.044-0.641-0.075-0.772s-0.213-0.273-0.543-0.424c-0.331-0.15-0.684-0.226-1.057-0.226
					s-0.707,0.078-0.998,0.236c-0.291,0.156-0.512,0.414-0.66,0.771c-0.147,0.358-0.222,0.785-0.222,1.282
					c0,0.419,0.06,0.828,0.178,1.228c0.118,0.398,0.274,0.729,0.468,0.99c0.194,0.263,0.451,0.474,0.77,0.633
					s0.674,0.239,1.066,0.239c0.246,0,0.486-0.032,0.721-0.096c0.235-0.063,0.506-0.169,0.811-0.314L312.983,29.279z"/>
				<path d="M315.588,19.886l0.13,0.082c-0.05,0.524-0.075,1.574-0.075,3.151v1.688c0.383-0.314,0.738-0.627,1.066-0.937
					c0.096-0.087,0.188-0.15,0.273-0.191s0.227-0.084,0.42-0.13c0.194-0.046,0.394-0.068,0.599-0.068
					c0.347,0,0.683,0.07,1.009,0.212c0.325,0.142,0.571,0.309,0.738,0.502c0.166,0.194,0.281,0.423,0.345,0.688
					s0.096,0.59,0.096,0.978v1.203c0,0.077,0.011,0.645,0.034,1.702c0.014,0.433,0.063,0.69,0.146,0.772
					c0.085,0.082,0.366,0.123,0.845,0.123l0.055,0.055v0.294l-0.055,0.055c-0.579-0.036-0.971-0.055-1.176-0.055
					c-0.104,0-0.438,0.019-0.998,0.055l-0.082-0.075c0.06-0.593,0.089-1.365,0.089-2.317v-0.896c0-0.538-0.013-0.925-0.037-1.162
					c-0.025-0.237-0.102-0.452-0.229-0.646c-0.128-0.194-0.298-0.345-0.509-0.451c-0.213-0.107-0.469-0.161-0.77-0.161
					c-0.311,0-0.568,0.042-0.775,0.126c-0.208,0.085-0.418,0.228-0.633,0.428s-0.343,0.368-0.387,0.502
					c-0.043,0.135-0.064,0.394-0.064,0.776v1.217c0,0.101,0.01,0.423,0.027,0.968c0.018,0.544,0.037,0.862,0.059,0.953
					c0.02,0.091,0.051,0.157,0.092,0.198s0.092,0.067,0.15,0.079c0.059,0.011,0.305,0.03,0.738,0.058l0.062,0.055v0.287
					l-0.055,0.062c-0.569-0.036-1.118-0.055-1.647-0.055c-0.523,0-1.07,0.019-1.641,0.055l-0.062-0.062v-0.287l0.062-0.055
					c0.441-0.027,0.691-0.048,0.748-0.062c0.058-0.014,0.107-0.042,0.15-0.086c0.044-0.043,0.073-0.109,0.09-0.197
					c0.016-0.09,0.033-0.383,0.055-0.883c0.02-0.498,0.03-0.876,0.03-1.131v-3.541l-0.027-1.449
					c-0.014-0.506-0.028-0.856-0.044-1.053c-0.017-0.196-0.038-0.313-0.065-0.349s-0.075-0.063-0.144-0.082
					s-0.344-0.027-0.827-0.027l-0.062-0.062v-0.287l0.055-0.062C314.258,20.291,314.99,20.123,315.588,19.886z"/>
				<path d="M323.777,23.495l0.13,0.089c-0.05,0.597-0.075,1.355-0.075,2.276v1.593c0,0.583,0.045,0.989,0.133,1.217
					c0.09,0.228,0.243,0.402,0.462,0.523c0.219,0.12,0.479,0.181,0.779,0.181c0.333,0,0.636-0.065,0.909-0.194
					c0.273-0.131,0.502-0.313,0.688-0.551c0.184-0.237,0.29-0.396,0.317-0.479s0.046-0.313,0.055-0.69l0.021-0.766v-0.738
					c0-0.183-0.01-0.431-0.027-0.745s-0.033-0.508-0.045-0.581c-0.011-0.073-0.047-0.126-0.105-0.161
					c-0.059-0.033-0.178-0.051-0.355-0.051l-0.574-0.007l-0.062-0.055v-0.294l0.055-0.055c0.87-0.104,1.604-0.275,2.201-0.513
					l0.13,0.089c-0.051,0.597-0.075,1.355-0.075,2.276v1.203c0,0.068,0.011,0.627,0.034,1.675c0.01,0.388,0.033,0.623,0.072,0.707
					c0.038,0.085,0.092,0.145,0.16,0.178c0.068,0.035,0.271,0.052,0.608,0.052h0.191l0.062,0.055v0.273l-0.055,0.062
					c-0.643-0.036-1.073-0.055-1.292-0.055c-0.278,0-0.599,0.016-0.964,0.048l-0.062-0.055c0.027-0.465,0.048-0.859,0.062-1.183
					c-0.287,0.224-0.615,0.521-0.984,0.896c-0.141,0.142-0.344,0.26-0.608,0.355s-0.565,0.144-0.902,0.144
					c-0.511,0-0.908-0.081-1.192-0.242c-0.285-0.162-0.486-0.386-0.605-0.67c-0.119-0.285-0.178-0.776-0.178-1.474l0.007-0.54
					v-1.333c0-0.183-0.009-0.431-0.027-0.745s-0.033-0.508-0.044-0.581c-0.012-0.073-0.047-0.126-0.106-0.161
					c-0.06-0.033-0.178-0.051-0.355-0.051l-0.574-0.007l-0.062-0.055v-0.294l0.055-0.055
					C322.447,23.904,323.18,23.733,323.777,23.495z"/>
				<path d="M332.192,23.495l0.13,0.089c-0.027,0.306-0.045,0.706-0.055,1.203c0.365-0.301,0.711-0.606,1.039-0.916
					c0.096-0.087,0.186-0.15,0.27-0.191c0.085-0.041,0.225-0.084,0.421-0.13s0.396-0.068,0.602-0.068
					c0.347,0,0.683,0.07,1.009,0.212c0.325,0.142,0.571,0.309,0.738,0.502c0.166,0.194,0.281,0.423,0.345,0.688
					s0.096,0.59,0.096,0.978v1.203c0,0.077,0.011,0.645,0.034,1.702c0.01,0.433,0.057,0.69,0.144,0.772s0.369,0.123,0.848,0.123
					l0.055,0.055v0.294l-0.055,0.055c-0.579-0.036-0.971-0.055-1.176-0.055c-0.118,0-0.451,0.019-0.998,0.055l-0.082-0.075
					c0.06-0.593,0.089-1.365,0.089-2.317v-0.896c0-0.538-0.013-0.925-0.037-1.162c-0.025-0.237-0.102-0.452-0.229-0.646
					c-0.128-0.194-0.298-0.345-0.513-0.451c-0.215-0.107-0.469-0.161-0.766-0.161c-0.236,0-0.439,0.024-0.608,0.071
					c-0.169,0.049-0.358,0.146-0.567,0.295c-0.209,0.147-0.365,0.287-0.465,0.416c-0.1,0.131-0.16,0.251-0.182,0.363
					c-0.02,0.111-0.03,0.35-0.03,0.714v1.189c0,0.101,0.009,0.423,0.027,0.968c0.019,0.544,0.038,0.862,0.058,0.953
					c0.021,0.091,0.052,0.157,0.093,0.198s0.091,0.067,0.15,0.079c0.06,0.011,0.306,0.03,0.738,0.058l0.062,0.055v0.287
					l-0.055,0.062c-0.57-0.036-1.119-0.055-1.647-0.055c-0.524,0-1.071,0.019-1.641,0.055l-0.062-0.062v-0.287l0.062-0.055
					c0.442-0.027,0.691-0.048,0.749-0.062c0.057-0.014,0.106-0.042,0.15-0.086c0.043-0.043,0.072-0.109,0.088-0.197
					c0.017-0.09,0.035-0.383,0.055-0.883c0.021-0.498,0.031-0.876,0.031-1.131v-1.347c0-0.183-0.01-0.431-0.027-0.745
					s-0.033-0.508-0.045-0.581c-0.011-0.073-0.047-0.126-0.105-0.161c-0.059-0.033-0.178-0.051-0.355-0.051l-0.574-0.007
					l-0.062-0.055v-0.294l0.055-0.055C330.861,23.904,331.596,23.733,332.192,23.495z"/>
				<path d="M345.543,23.967l0.055,0.123c-0.188,0.287-0.303,0.474-0.349,0.561h-1.271c0.128,0.251,0.191,0.513,0.191,0.786
					c0,0.323-0.074,0.638-0.222,0.943c-0.148,0.306-0.355,0.565-0.619,0.779s-0.564,0.385-0.898,0.513
					c-0.336,0.128-0.717,0.191-1.146,0.191h-0.314c-0.269,0.214-0.442,0.374-0.52,0.479s-0.116,0.212-0.116,0.321
					c0,0.2,0.092,0.342,0.277,0.424c0.184,0.082,0.566,0.123,1.145,0.123l1.531-0.021c0.482,0,0.854,0.057,1.111,0.171
					c0.257,0.114,0.465,0.317,0.625,0.612c0.16,0.293,0.239,0.604,0.239,0.933c0,0.501-0.163,1.001-0.489,1.501
					c-0.325,0.498-0.796,0.878-1.411,1.138s-1.271,0.39-1.969,0.39c-0.396,0-0.769-0.043-1.118-0.13
					c-0.348-0.087-0.653-0.218-0.916-0.394c-0.262-0.175-0.473-0.404-0.632-0.687s-0.239-0.576-0.239-0.882
					c0-0.169,0.025-0.346,0.075-0.529c0.05-0.186,0.146-0.385,0.287-0.599l1.237-0.69c-0.396-0.123-0.646-0.245-0.748-0.365
					c-0.104-0.121-0.154-0.266-0.154-0.435c0-0.173,0.057-0.378,0.171-0.615l1.101-0.793c-0.646-0.169-1.084-0.422-1.309-0.759
					c-0.227-0.337-0.339-0.706-0.339-1.107c0-0.369,0.079-0.721,0.239-1.057c0.16-0.334,0.4-0.603,0.721-0.803
					c0.322-0.2,0.682-0.359,1.08-0.475c0.399-0.117,0.763-0.175,1.091-0.175c0.569,0,1.112,0.185,1.627,0.554
					C344.393,23.994,345.051,23.986,345.543,23.967z M341.988,30.14c-0.734,0-1.156,0.009-1.268,0.027
					c-0.112,0.019-0.271,0.096-0.476,0.232s-0.372,0.322-0.503,0.558c-0.129,0.234-0.194,0.497-0.194,0.789
					c0,0.515,0.191,0.935,0.574,1.258s0.894,0.485,1.531,0.485c0.479,0,0.921-0.101,1.326-0.301s0.705-0.47,0.899-0.807
					c0.193-0.337,0.29-0.661,0.29-0.971s-0.081-0.575-0.243-0.796c-0.161-0.222-0.371-0.355-0.629-0.404
					C343.04,30.164,342.604,30.14,341.988,30.14z M339.985,25.553c0,0.278,0.055,0.576,0.164,0.896s0.286,0.561,0.53,0.725
					c0.243,0.164,0.518,0.246,0.823,0.246c0.405,0,0.755-0.132,1.05-0.396c0.293-0.265,0.44-0.677,0.44-1.237
					c0-0.474-0.134-0.9-0.403-1.278s-0.649-0.567-1.142-0.567c-0.415,0-0.763,0.136-1.042,0.406
					C340.125,24.617,339.985,25.02,339.985,25.553z"/>
			</g>
			<rect id="rect4154-8" x="118.281" y="0" width="1.212" height="35.152"/>
		</g>
	</g>
</g>
</svg>
