<svg xmlns="http://www.w3.org/2000/svg" xmlns:xlink="http://www.w3.org/1999/xlink" viewBox="0 0 260.9 129.5"><path d="M35.7 31.1h7.7l3.1 1.4 1.7 2 .7 2.5.1 2.4-.8 4-1.1 2.6-1.9 2.5-2.4 2-3.7 1.3h-7.9l4.5-20.7zm3.6 17.7l2.3-.9 1.5-1.3 1.1-1.6 1-2 .6-2.9-.1-2-.5-1.7-1-1.2-1.9-.9h-4l-3.1 14.5h4.1zm20.9 1.6l-.4.4-2.9 1.3H55l-1.8-.6-1.3-1-1.2-2.4.2-1.8 1-2.2 2.4-1.9 3.1-.8h2l1.7.6.3.2.3-1.4-.1-.6-.8-.7-1.2-.3h-1.9l-1 .4-.9.5-1 .8-1.8-2.1 1.3-1.1 1.5-.8 2.2-.6h2.7l1.8.5 2 1.7.5 1.9-1.8 8.3.8 1.8-3 1.8-.8-1.9zM56.8 49l2-.7 1.2-1.1.4-.6.2-.8-.4-.5-.5-.3-1.3-.4h-1.1l-1.7.4-1.1.8-.4.8-.1.7.5 1.1.5.3 1 .3h.8zm13.7 2.3L69.2 49l1.9-9h-2.6l.7-3.1h2.6l1.1-5.4h3.2L75 36.9h3.8l-.6 3.1h-3.8l-1.7 8 .4.7.7.4h.6l2.4-.6.2 3-3 .7h-1.5l-2-.9zm18.9-.9l-.4.4-2.9 1.3h-1.9l-1.8-.6-1.3-1-1.1-2.3.2-1.8 1-2.2 2.4-1.9 3.1-.8h2l1.7.6.3.2.3-1.4-.1-.6-.8-.7-1.2-.3H87l-1 .4-.9.5-1 .8-1.7-2.3 1.3-1.1 1.5-.8 2.2-.6h2.7l1.8.5 2 1.7.5 1.9-1.8 8.3.8 1.8-3 1.8-1-1.8zM86 49l2-.7 1.2-1.1.4-.6.2-.8-.4-.5-.5-.3-1.3-.4h-1.1l-1.7.4-1.1.8-.4.8-.1.7.5 1.1.5.3 1.1.4h.7zm24.3-17.9h7.7l3.1 1.4 1.7 2 .7 2.5.1 2.4-.8 4-1.1 2.6-1.9 2.5-2.4 2-3.7 1.3h-7.9l4.5-20.7zm3.6 17.7l2.3-.9 1.5-1.3 1.1-1.6 1-2 .6-2.9-.1-2-.5-1.7-1-1.2-1.9-.9h-4l-3.1 14.5h4.1zm13.5 1.9l-1.2-2.4v-2.5l.6-3.4 1.1-2.6 2-2.2 3.2-1.5h3.1l2.6 1.5L140 40v2.4l-.7 3.5-1 2.5-2 2.3-3.3 1.4h-3.2l-2.4-1.4zm5.7-1.6l1.7-.8.8-1 .8-1.8.6-2.7v-1.7l-.5-1.1-1.3-.7h-2l-1.5.7-1 1-.7 1.7-.6 2.6-.1 1.9.5 1 1.3.8h2zm12.3-12.6h3.2l-.2.9 2.3-1.2h2.6l2.5.8 1.4 2.5-2.6 12.3h-3.2l2.4-11.3-.4-.8-1.3-.5h-1.6l-2.1 1.2-.9 1-2.2 10.4h-3.2l3.3-15.3zm23.5 13.9l-.4.4-2.9 1.3h-1.9l-1.8-.6-1.3-1-1.2-2.4.2-1.8 1-2.2 2.4-1.9 3.1-.8h2l1.7.6.3.2.3-1.4-.1-.6-.8-.7-1.2-.3h-1.9l-1 .4-.9.5-1 .8-1.7-2.3 1.3-1.1 1.5-.8 2.2-.6h2.7l1.8.5 2 1.7.5 1.9-1.8 8.3.8 1.8-3 1.8-.9-1.7zm-3.4-1.4l2-.7 1.2-1.1.4-.6.2-.8-.4-.5-.6-.3-1.3-.4h-1l-1.7.4-1.1.8-.4.8-.1.7.5 1.1.5.3 1.1.4h.7zm13.7 2.3l-1.3-2.3 1.9-9h-2.6l.7-3.1h2.6l1.1-5.4h3.2l-1.1 5.4h3.8l-.7 3.1H183l-1.7 8 .4.7.7.4h.6l2.4-.6.2 3-3 .7h-1.5l-1.9-.9zm13.4-14.8h3.2l-3.3 15.4h-3.2l3.3-15.4zm.9-6.6h4.2l-.9 4.2h-4.2l.9-4.2zm6.4 20.8l-1.2-2.4v-2.5l.6-3.4 1.1-2.6 2-2.2 3.2-1.5h3.1l2.6 1.5 1.2 2.4v2.4l-.7 3.5-1 2.5-2 2.3-3.3 1.4h-3.2l-2.4-1.4zm5.6-1.6l1.7-.8.8-1 .8-1.8.6-2.7v-1.7l-.5-1.1-1.3-.7h-2l-1.5.7-1 1-.7 1.7-.6 2.6-.1 1.9.5 1 1.3.8h2zm12.4-12.6h3.2l-.2.9 2.3-1.2h2.6l2.5.8 1.4 2.5-2.6 12.3h-3.2l2.4-11.3-.4-.8-1.3-.5H223l-2.1 1.2-.9 1-2.2 10.4h-3.2l3.3-15.3zM36 66.2h3.3l-3.7 17.7h9l-.8 3.1H31.6L36 66.2zm20.1 19.3l-.4.4-2.9 1.3h-1.9l-1.8-.6-1.3-1-1.2-2.4.2-1.8 1-2.2 2.4-1.9 3.1-.8h2l1.7.6.3.2.3-1.4-.1-.6-.8-.7-1.2-.3h-1.9l-1 .4-.9.5-1 .8-1.7-2.3 1.3-1.1 1.5-.8 2.2-.6h2.7l1.8.5 2 1.7.5 1.9-1.8 8.3.8 1.8-3 1.8-.9-1.7zm-3.4-1.4l2-.7 1.2-1.1.4-.6.2-.8-.4-.5-.6-.3-1.3-.4h-1.1l-1.7.4-1.1.8-.3.8-.1.7.5 1.1.5.3 1.1.4h.7zm14.6 2.5l-.3-.3-.1.7h-3.2l4.7-22h3.2L70 72.4l2-1.1h2.7l2.7 1.5 1.4 2.6.2 2.1-.7 3.4-1 2.2-2.4 2.6-3.4 1.5h-2.7l-1.5-.6zm4.2-2.4l1.6-.8c.5-.6 1-1.1 1.6-1.7.2-.4.3-.7.5-1.1l.6-2.6-.1-1.1-.8-1.7-1.5-.8h-1.6L70 75.6l-1 1.1-1.3 6 .3.6.8.6.9.4h1.8z"/><defs><path id="a" d="M184.1 71.9h-70.6c-8.5.2-15.3 7.2-15.3 15.7 0 8.6 6.8 15.5 15.3 15.7h70.6c8.5-.2 15.3-7.2 15.3-15.7s-6.8-15.4-15.3-15.7z"/></defs><clipPath id="b"><use xlink:href="#a" overflow="visible"/></clipPath><g clip-path="url(#b)"><radialGradient id="c" cx="1422.941" cy="-2789.019" r="43.818" fx="1394.792" fy="-2789.076" gradientTransform="rotate(180 790.534 -1350.677)" gradientUnits="userSpaceOnUse"><stop offset=".341" stop-color="#fff"/><stop offset=".424" stop-color="#cfcfcf"/><stop offset=".542" stop-color="#919191"/><stop offset=".655" stop-color="#5d5d5d"/><stop offset=".761" stop-color="#353535"/><stop offset=".857" stop-color="#181818"/><stop offset=".94" stop-color="#060606"/><stop offset="1"/></radialGradient><path d="M98.2 87.7c0 8.6 6.8 15.5 15.3 15.7H218V71.9H113.5c-8.5.3-15.3 7.2-15.3 15.8z" fill="url(#c)"/><path fill="#fff" d="M237.624 113.9h-53.7v-50h53.7z"/></g><circle cx="183.8" cy="87.7" r="15.7"/><path fill="none" d="M0 0h260.9v129.5H0z"/></svg>