<svg xmlns="http://www.w3.org/2000/svg" xmlns:xlink="http://www.w3.org/1999/xlink" width="32" height="32" viewBox="0 0 8.467 8.467"><defs><radialGradient xlink:href="#a" id="e" cx="110.14" cy="87.643" fx="110.14" fy="87.643" r="50.6" gradientTransform="matrix(-1.06476 0 0 -1.83768 295.565 248.66)" gradientUnits="userSpaceOnUse"/><radialGradient xlink:href="#a" id="f" gradientUnits="userSpaceOnUse" gradientTransform="matrix(-1.06476 0 0 -1.83768 295.565 248.66)" cx="110.14" cy="87.643" fx="110.14" fy="87.643" r="50.6"/><radialGradient xlink:href="#a" id="g" gradientUnits="userSpaceOnUse" gradientTransform="matrix(-1.06476 0 0 -1.83768 295.565 248.66)" cx="110.14" cy="87.643" fx="110.14" fy="87.643" r="50.6"/><linearGradient id="a"><stop offset="0" stop-color="#fff" stop-opacity="0"/><stop offset=".136" stop-color="#ddd" stop-opacity=".129"/><stop offset="1"/></linearGradient><linearGradient id="b"><stop offset="0"/><stop offset="1" stop-opacity="0"/></linearGradient><linearGradient xlink:href="#b" id="h" x1="207.972" y1="25.252" x2="207.232" y2="25.104" gradientUnits="userSpaceOnUse"/><clipPath id="d"><use xlink:href="#c" width="100%" height="100%" overflow="visible"/></clipPath><path id="c" d="M184.1 71.9h-70.6c-8.5.2-15.3 7.2-15.3 15.7 0 8.6 6.8 15.5 15.3 15.7h70.6c8.5-.2 15.3-7.2 15.3-15.7s-6.8-15.4-15.3-15.7z"/></defs><g transform="translate(2.49 -88.89) scale(.31594)" stroke-width="3.165"><g transform="translate(-33.86 271.51) scale(.26458)" clip-path="url(#d)" class="st0" fill="url(#e)"><path d="M98.2 87.7c0 8.6 6.8 15.5 15.3 15.7H218V71.9H113.5c-8.5.3-15.3 7.2-15.3 15.8z" class="st1" fill="url(#f)"/><path class="st2" transform="rotate(180 210.712 88.9)" fill="url(#g)" stroke="url(#h)" d="M183.8 63.9h53.7v50h-53.7z"/></g><circle r="4.154" cy="294.685" cx="14.765"/></g></svg>