<svg viewBox="0 0 1088 417" xmlns="http://www.w3.org/2000/svg" fill-rule="evenodd" clip-rule="evenodd" stroke-linejoin="round" stroke-miterlimit="2"><path d="M.899-.36h.119a.36.36 0 010 .719H-.593a.36.36 0 010-.719H.899z" fill="url(#_Radial1)" fill-rule="nonzero" transform="rotate(180 447.255 131.256) scale(145.4022)"/><g transform="matrix(3.3183 0 0 -3.3183 979.853 175.565)"><clipPath id="a"><path d="M-65.096-41.959l-5.222.001c-8.502.236-15.325 7.184-15.325 15.744 0 8.559 6.823 15.508 15.325 15.745h5.222v.001l48.365-.001H.271c8.503-.237 15.326-7.186 15.326-15.746 0-8.559-6.824-15.507-15.326-15.744l-65.367-.001v.001z" clip-rule="nonzero"/></clipPath><g clip-path="url(#a)"><path fill="#fff" d="M0-49.983h53.73V0H0z"/></g></g><path d="M927.394 262.554c0 28.856 23.394 52.247 52.25 52.247 28.853 0 52.25-23.391 52.25-52.247 0-28.853-23.397-52.247-52.25-52.247-28.856 0-52.25 23.394-52.25 52.247m-791.43 52.43l37.5-13.2 24.9-20.4 19.2-25.8 11.1-26.4 8.1-40.8-.9-24.9-7.5-26.1-17.1-21-31.8-14.7h-78.9l-45.3 213.3h80.7zm-8.7-181.2h41.4l19.8 9 10.2 12.6 5.1 17.4.9 20.7-6.3 29.7-10.2 20.7-11.7 16.8-15.6 12.9-23.7 9.3h-41.4l31.5-149.1zm207.601 181.2l37.5-13.2 24.9-20.4 19.2-25.8 11.1-26.4 8.1-40.8-.9-24.9-7.5-26.1-17.1-21-31.8-14.7h-78.9l-45.3 213.3h80.7zm-8.7-181.2h41.4l19.8 9 10.2 12.6 5.1 17.4.9 20.7-6.3 29.7-10.2 20.7-11.7 16.8-15.6 12.9-23.7 9.3h-41.4l31.5-149.1zm160.5 181.2l28.5-134.1 26.7 111.3h29.7l73.2-111-28.8 133.8h33.9l45.3-213.3h-34.8l-96.3 147.9-35.7-147.9h-30.3l-45.3 213.3h33.9z" fill="#fff" fill-rule="nonzero"/><defs><radialGradient id="_Radial1" cx="0" cy="0" r="1" gradientUnits="userSpaceOnUse" gradientTransform="matrix(2.31045 0 0 .71872 -.943 0)"><stop offset="0" stop-color="#fff" stop-opacity="0"/><stop offset=".35" stop-color="#fff" stop-opacity=".06"/><stop offset=".63" stop-color="#fff" stop-opacity=".35"/><stop offset="1" stop-color="#fff"/></radialGradient></defs></svg>