<?xml version="1.0" encoding="UTF-8" standalone="no"?>
<!DOCTYPE svg PUBLIC "-//W3C//DTD SVG 1.1//EN" "http://www.w3.org/Graphics/SVG/1.1/DTD/svg11.dtd">
<svg width="100%" height="100%" viewBox="0 0 1088 417" version="1.1" xmlns="http://www.w3.org/2000/svg" xmlns:xlink="http://www.w3.org/1999/xlink" xml:space="preserve" xmlns:serif="http://www.serif.com/" style="fill-rule:evenodd;clip-rule:evenodd;stroke-linejoin:round;stroke-miterlimit:2;">
    <g id="Logo" transform="matrix(4.16667,0,0,4.16667,0,-61.4229)">
        <g transform="matrix(1,0,0,1,-0.0353676,0)">
            <g transform="matrix(0.24,0,0,0.24,-62.9553,67.3558)">
                <text x="311.578px" y="53.757px" style="font-family:'GTCinetype-BoldItalic', 'GT Cinetype';font-weight:700;font-style:italic;font-size:300px;">DDM</text>
            </g>
            <g transform="matrix(0.796448,0,0,0.796448,88.8104,-2.05491)">
                <g>
                    <g transform="matrix(-43.8183,0,0,43.8183,158.128,87.6894)">
                        <path d="M0.899,-0.36L1.018,-0.36C1.212,-0.354 1.368,-0.196 1.368,-0C1.368,0.049 1.358,0.096 1.339,0.139C1.286,0.265 1.163,0.355 1.018,0.359L1.018,0.359C1.018,0.359 1.018,0.359 1.018,0.359L0.899,0.359L0.899,0.359L-0.209,0.359L-0.593,0.359C-0.787,0.354 -0.943,0.195 -0.943,-0C-0.943,-0.196 -0.787,-0.354 -0.593,-0.36L0.899,-0.36L0.899,-0.36Z" style="fill:url(#_Radial1);fill-rule:nonzero;"/>
                    </g>
                    <g transform="matrix(1,0,0,1,183.847,113.891)">
                        <clipPath id="_clip2">
                            <path d="M-65.096,-41.959L-70.318,-41.958C-78.82,-41.722 -85.643,-34.774 -85.643,-26.214C-85.643,-17.655 -78.82,-10.706 -70.318,-10.469L-65.096,-10.469L-65.096,-10.468L-16.731,-10.469L0.271,-10.469C8.774,-10.706 15.597,-17.655 15.597,-26.215C15.597,-34.774 8.773,-41.722 0.271,-41.959L-65.096,-41.96L-65.096,-41.959Z" clip-rule="nonzero"/>
                        </clipPath>
                        <g clip-path="url(#_clip2)">
                            <rect x="0" y="-49.983" width="53.73" height="49.983" style="fill:white;"/>
                        </g>
                    </g>
                </g>
                <g transform="matrix(0,1,1,0,183.783,71.9306)">
                    <path d="M15.746,-15.746C7.05,-15.746 0.001,-8.696 0.001,-0C0.001,8.695 7.05,15.746 15.746,15.746C24.441,15.746 31.491,8.695 31.491,-0C31.491,-8.696 24.441,-15.746 15.746,-15.746" style="fill-rule:nonzero;"/>
                </g>
            </g>
        </g>
        <g transform="matrix(0.24,0,0,0.24,-5.67802,14.198)">
            <text x="81.527px" y="371.856px" style="font-family:'GTCinetype-BoldItalic', 'GT Cinetype';font-weight:700;font-style:italic;font-size:93.75px;">Da<tspan x="195.246px 232.183px " y="371.856px 371.856px ">ta</tspan> Dona<tspan x="533.777px 571.183px " y="371.856px 371.856px ">ti</tspan>on Module</text>
        </g>
    </g>
    <defs>
        <radialGradient id="_Radial1" cx="0" cy="0" r="1" gradientUnits="userSpaceOnUse" gradientTransform="matrix(1.3212,-0.000653625,-0.000519921,-1.05094,-0.321203,0.000108474)"><stop offset="0" style="stop-color:white;stop-opacity:1"/><stop offset="1" style="stop-color:black;stop-opacity:1"/></radialGradient>
    </defs>
</svg>
